<?xml version="1.0" encoding="UTF-8" standalone="no"?>
<!-- Created with Inkscape (http://www.inkscape.org/) -->
<svg id="svg3050" xmlns:rdf="http://www.w3.org/1999/02/22-rdf-syntax-ns#" xmlns="http://www.w3.org/2000/svg" viewBox="0 0 600 150" version="1.1" xmlns:cc="http://creativecommons.org/ns#" xmlns:dc="http://purl.org/dc/elements/1.1/">
 <defs id="defs3052">
  <marker id="Arrow2Send" refY="0.0" refX="0.0" orient="auto">
   <path id="path4847" stroke-linejoin="round" d="M8.7186,4.0337l-10.926-4.0177,10.926-4.0177c-1.7455,2.3721-1.7355,5.6174,0,8.0354z" fill-rule="evenodd" transform="scale(0.3) rotate(180) translate(-2.3,0)" stroke-width="0.62500000"/>
  </marker>
  <marker id="Arrow1Mend" refY="0.0" refX="0.0" orient="auto">
   <path id="path4823" d="M0,0l5-5-17.5,5,17.5,5-5-5z" fill-rule="evenodd" transform="scale(0.4) rotate(180) translate(10,0)" stroke="#000" stroke-width="1.0pt"/>
  </marker>
 </defs>
 <metadata id="metadata3055">
  <rdf:RDF>
   <cc:Work rdf:about="">
    <dc:format>image/svg+xml</dc:format>
    <dc:type rdf:resource="http://purl.org/dc/dcmitype/StillImage"/>
    <dc:title/>
   </cc:Work>
  </rdf:RDF>
 </metadata>
 <g id="layer1" stroke-linejoin="miter" fill-rule="nonzero" transform="translate(0,-902.36218)" stroke-dashoffset="0" stroke="#045300" stroke-linecap="butt" stroke-dasharray="1, 1" stroke-miterlimit="4" stroke-width="1" fill="#f2f2f2">
  <rect id="rect5552" opacity="0.76389" style="enable-background:accumulate;color:#000000;" height="140" width="195" y="907.36" x="4.5"/>
  <rect id="rect5554" opacity="0.76389" style="enable-background:accumulate;color:#000000;" height="140" width="195" y="907.36" x="202.5"/>
  <rect id="rect5556" opacity="0.76389" style="enable-background:accumulate;color:#000000;" height="140" width="195" y="907.36" x="400.5"/>
 </g>
 <g id="layer6" stroke="#0020ff" stroke-width="3.0405798">
  <path id="path5559" opacity="0.76388891" style="enable-background:accumulate;color:#000000;" d="m45.609-32.435a4.5609,4.5609,0,1,1,-9.1217,0,4.5609,4.5609,0,1,1,9.1217,0z" fill-rule="nonzero" transform="matrix(0.32888467,0,0,0.32888467,445.07229,58.515194)" fill="#00F"/>
  <path id="path5715" opacity="0.76388891" style="enable-background:accumulate;color:#000000;" d="m45.609-32.435a4.5609,4.5609,0,1,1,-9.1217,0,4.5609,4.5609,0,1,1,9.1217,0z" fill-rule="nonzero" transform="matrix(0.32888467,0,0,0.32888467,450.88535,59.968454)" fill="#00F"/>
  <path id="path5717" opacity="0.76388891" style="enable-background:accumulate;color:#000000;" d="m45.609-32.435a4.5609,4.5609,0,1,1,-9.1217,0,4.5609,4.5609,0,1,1,9.1217,0z" fill-rule="nonzero" transform="matrix(0.32888467,0,0,0.32888467,447.25219,62.874984)" fill="#00F"/>
  <path id="path5559-8" opacity="0.76388891" style="enable-background:accumulate;color:#000000;" d="m45.609-32.435a4.5609,4.5609,0,1,1,-9.1217,0,4.5609,4.5609,0,1,1,9.1217,0z" fill-rule="nonzero" transform="matrix(0.32888467,0,0,0.32888467,460.09498,69.889454)" fill="#00F"/>
  <path id="path5715-2" opacity="0.76388891" style="enable-background:accumulate;color:#000000;" d="m45.609-32.435a4.5609,4.5609,0,1,1,-9.1217,0,4.5609,4.5609,0,1,1,9.1217,0z" fill-rule="nonzero" transform="matrix(0.32888467,0,0,0.32888467,458.2784,61.169864)" fill="#00F"/>
  <path id="path5717-4" opacity="0.76388891" style="enable-background:accumulate;color:#000000;" d="m45.609-32.435a4.5609,4.5609,0,1,1,-9.1217,0,4.5609,4.5609,0,1,1,9.1217,0z" fill-rule="nonzero" transform="matrix(0.32888467,0,0,0.32888467,493.88339,80.425624)" fill="#00F"/>
  <path id="path5755" opacity="0.76388891" style="enable-background:accumulate;color:#000000;" d="m45.609-32.435a4.5609,4.5609,0,1,1,-9.1217,0,4.5609,4.5609,0,1,1,9.1217,0z" fill-rule="nonzero" transform="matrix(0.32888467,0,0,0.32888467,443.61903,66.508144)" fill="#00F"/>
  <path id="path5757" opacity="0.76388891" style="enable-background:accumulate;color:#000000;" d="m45.609-32.435a4.5609,4.5609,0,1,1,-9.1217,0,4.5609,4.5609,0,1,1,9.1217,0z" fill-rule="nonzero" transform="matrix(0.32888467,0,0,0.32888467,475.95417,79.950844)" fill="#00F"/>
  <path id="path5759" opacity="0.76388891" style="enable-background:accumulate;color:#000000;" d="m45.609-32.435a4.5609,4.5609,0,1,1,-9.1217,0,4.5609,4.5609,0,1,1,9.1217,0z" fill-rule="nonzero" transform="matrix(0.32888467,0,0,0.32888467,538.57127,77.882404)" fill="#00F"/>
  <path id="path5761" opacity="0.76388891" style="enable-background:accumulate;color:#000000;" d="m45.609-32.435a4.5609,4.5609,0,1,1,-9.1217,0,4.5609,4.5609,0,1,1,9.1217,0z" fill-rule="nonzero" transform="matrix(0.32888467,0,0,0.32888467,451.01208,66.982924)" fill="#00F"/>
  <path id="path5763" opacity="0.76388891" style="enable-background:accumulate;color:#000000;" d="m45.609-32.435a4.5609,4.5609,0,1,1,-9.1217,0,4.5609,4.5609,0,1,1,9.1217,0z" fill-rule="nonzero" transform="matrix(0.32888467,0,0,0.32888467,446.28896,69.889454)" fill="#00F"/>
  <path id="path5765" opacity="0.76388891" style="enable-background:accumulate;color:#000000;" d="m45.609-32.435a4.5609,4.5609,0,1,1,-9.1217,0,4.5609,4.5609,0,1,1,9.1217,0z" fill-rule="nonzero" transform="matrix(0.32888467,0,0,0.32888467,463.60142,65.054884)" fill="#00F"/>
  <path id="path5767" opacity="0.76388891" style="enable-background:accumulate;color:#000000;" d="m45.609-32.435a4.5609,4.5609,0,1,1,-9.1217,0,4.5609,4.5609,0,1,1,9.1217,0z" fill-rule="nonzero" transform="matrix(0.32888467,0,0,0.32888467,469.41448,66.508144)" fill="#00F"/>
  <path id="path5769" opacity="0.76388891" style="enable-background:accumulate;color:#000000;" d="m45.609-32.435a4.5609,4.5609,0,1,1,-9.1217,0,4.5609,4.5609,0,1,1,9.1217,0z" fill-rule="nonzero" transform="matrix(0.32888467,0,0,0.32888467,483.33733,91.296214)" fill="#00F"/>
  <path id="path5771" opacity="0.76388891" style="enable-background:accumulate;color:#000000;" d="m45.609-32.435a4.5609,4.5609,0,1,1,-9.1217,0,4.5609,4.5609,0,1,1,9.1217,0z" fill-rule="nonzero" transform="matrix(0.32888467,0,0,0.32888467,475.71758,73.522614)" fill="#00F"/>
  <path id="path5773" opacity="0.76388891" style="enable-background:accumulate;color:#000000;" d="m45.609-32.435a4.5609,4.5609,0,1,1,-9.1217,0,4.5609,4.5609,0,1,1,9.1217,0z" fill-rule="nonzero" transform="matrix(0.32888467,0,0,0.32888467,476.80752,67.709554)" fill="#00F"/>
  <path id="path5775" opacity="0.76388891" style="enable-background:accumulate;color:#000000;" d="m45.609-32.435a4.5609,4.5609,0,1,1,-9.1217,0,4.5609,4.5609,0,1,1,9.1217,0z" fill-rule="nonzero" transform="matrix(0.32888467,0,0,0.32888467,472.08441,69.889454)" fill="#00F"/>
  <path id="path5777" opacity="0.76388891" style="enable-background:accumulate;color:#000000;" d="m45.609-32.435a4.5609,4.5609,0,1,1,-9.1217,0,4.5609,4.5609,0,1,1,9.1217,0z" fill-rule="nonzero" transform="matrix(0.32888467,0,0,0.32888467,462.14815,73.047834)" fill="#00F"/>
  <path id="path5779" opacity="0.76388891" style="enable-background:accumulate;color:#000000;" d="m45.609-32.435a4.5609,4.5609,0,1,1,-9.1217,0,4.5609,4.5609,0,1,1,9.1217,0z" fill-rule="nonzero" transform="matrix(0.32888467,0,0,0.32888467,452.70193,75.227734)" fill="#00F"/>
  <path id="path5781" opacity="0.76388891" style="enable-background:accumulate;color:#000000;" d="m45.609-32.435a4.5609,4.5609,0,1,1,-9.1217,0,4.5609,4.5609,0,1,1,9.1217,0z" fill-rule="nonzero" transform="matrix(0.32888467,0,0,0.32888467,488.79696,79.335674)" fill="#00F"/>
  <path id="path5783" opacity="0.76388891" style="enable-background:accumulate;color:#000000;" d="m45.609-32.435a4.5609,4.5609,0,1,1,-9.1217,0,4.5609,4.5609,0,1,1,9.1217,0z" fill-rule="nonzero" transform="matrix(0.32888467,0,0,0.32888467,469.5412,74.249244)" fill="#00F"/>
  <path id="path5785" opacity="0.76388891" style="enable-background:accumulate;color:#000000;" d="m45.609-32.435a4.5609,4.5609,0,1,1,-9.1217,0,4.5609,4.5609,0,1,1,9.1217,0z" fill-rule="nonzero" transform="matrix(0.32888467,0,0,0.32888467,464.81809,76.429144)" fill="#00F"/>
  <path id="path5787" opacity="0.76388891" style="enable-background:accumulate;color:#000000;" d="m45.609-32.435a4.5609,4.5609,0,1,1,-9.1217,0,4.5609,4.5609,0,1,1,9.1217,0z" fill-rule="nonzero" transform="matrix(0.32888467,0,0,0.32888467,485.03707,71.957894)" fill="#00F"/>
  <path id="path5789" opacity="0.76388891" style="enable-background:accumulate;color:#000000;" d="m45.609-32.435a4.5609,4.5609,0,1,1,-9.1217,0,4.5609,4.5609,0,1,1,9.1217,0z" fill-rule="nonzero" transform="matrix(0.32888467,0,0,0.32888467,490.85013,73.411154)" fill="#00F"/>
  <path id="path5791" opacity="0.76388891" style="enable-background:accumulate;color:#000000;" d="m45.609-32.435a4.5609,4.5609,0,1,1,-9.1217,0,4.5609,4.5609,0,1,1,9.1217,0z" fill-rule="nonzero" transform="matrix(0.32888467,0,0,0.32888467,480.67728,74.864424)" fill="#00F"/>
  <path id="path5793" opacity="0.76388891" style="enable-background:accumulate;color:#000000;" d="m45.609-32.435a4.5609,4.5609,0,1,1,-9.1217,0,4.5609,4.5609,0,1,1,9.1217,0z" fill-rule="nonzero" transform="matrix(0.32888467,0,0,0.32888467,526.21852,81.152254)" fill="#00F"/>
  <path id="path5795" opacity="0.76388891" style="enable-background:accumulate;color:#000000;" d="m45.609-32.435a4.5609,4.5609,0,1,1,-9.1217,0,4.5609,4.5609,0,1,1,9.1217,0z" fill-rule="nonzero" transform="matrix(0.32888467,0,0,0.32888467,517.86225,92.778374)" fill="#00F"/>
  <path id="path5797" opacity="0.76388891" style="enable-background:accumulate;color:#000000;" d="m45.609-32.435a4.5609,4.5609,0,1,1,-9.1217,0,4.5609,4.5609,0,1,1,9.1217,0z" fill-rule="nonzero" transform="matrix(0.32888467,0,0,0.32888467,499.33313,81.515574)" fill="#00F"/>
  <path id="path5799" opacity="0.76388891" style="enable-background:accumulate;color:#000000;" d="m45.609-32.435a4.5609,4.5609,0,1,1,-9.1217,0,4.5609,4.5609,0,1,1,9.1217,0z" fill-rule="nonzero" transform="matrix(0.32888467,0,0,0.32888467,483.58381,79.950844)" fill="#00F"/>
  <path id="path5801" opacity="0.76388891" style="enable-background:accumulate;color:#000000;" d="m45.609-32.435a4.5609,4.5609,0,1,1,-9.1217,0,4.5609,4.5609,0,1,1,9.1217,0z" fill-rule="nonzero" transform="matrix(0.32888467,0,0,0.32888467,479.95065,82.857374)" fill="#00F"/>
  <path id="path5803" opacity="0.76388891" style="enable-background:accumulate;color:#000000;" d="m45.609-32.435a4.5609,4.5609,0,1,1,-9.1217,0,4.5609,4.5609,0,1,1,9.1217,0z" fill-rule="nonzero" transform="matrix(0.32888467,0,0,0.32888467,491.98258,91.156664)" fill="#00F"/>
  <path id="path5805" opacity="0.76388891" style="enable-background:accumulate;color:#000000;" d="m45.609-32.435a4.5609,4.5609,0,1,1,-9.1217,0,4.5609,4.5609,0,1,1,9.1217,0z" fill-rule="nonzero" transform="matrix(0.32888467,0,0,0.32888467,430.48925,55.734574)" fill="#00F"/>
  <path id="path5807" opacity="0.76388891" style="enable-background:accumulate;color:#000000;" d="m45.609-32.435a4.5609,4.5609,0,1,1,-9.1217,0,4.5609,4.5609,0,1,1,9.1217,0z" fill-rule="nonzero" transform="matrix(0.32888467,0,0,0.32888467,493.88339,84.785414)" fill="#00F"/>
  <path id="path5809" opacity="0.76388891" style="enable-background:accumulate;color:#000000;" d="m45.609-32.435a4.5609,4.5609,0,1,1,-9.1217,0,4.5609,4.5609,0,1,1,9.1217,0z" fill-rule="nonzero" transform="matrix(0.32888467,0,0,0.32888467,486.85366,84.673954)" fill="#00F"/>
  <path id="path5811" opacity="0.76388891" style="enable-background:accumulate;color:#000000;" d="m45.609-32.435a4.5609,4.5609,0,1,1,-9.1217,0,4.5609,4.5609,0,1,1,9.1217,0z" fill-rule="nonzero" transform="matrix(0.32888467,0,0,0.32888467,511.92247,91.940284)" fill="#00F"/>
  <path id="path5813" opacity="0.76388891" style="enable-background:accumulate;color:#000000;" d="m45.609-32.435a4.5609,4.5609,0,1,1,-9.1217,0,4.5609,4.5609,0,1,1,9.1217,0z" fill-rule="nonzero" transform="matrix(0.32888467,0,0,0.32888467,533.28009,84.883079)" fill="#00F"/>
  <path id="path5815" opacity="0.76388891" style="enable-background:accumulate;color:#000000;" d="m45.609-32.435a4.5609,4.5609,0,1,1,-9.1217,0,4.5609,4.5609,0,1,1,9.1217,0z" fill-rule="nonzero" transform="matrix(0.32888467,0,0,0.32888467,515.68235,86.965314)" fill="#00F"/>
  <path id="path5817" opacity="0.76388891" style="enable-background:accumulate;color:#000000;" d="m45.609-32.435a4.5609,4.5609,0,1,1,-9.1217,0,4.5609,4.5609,0,1,1,9.1217,0z" fill-rule="nonzero" transform="matrix(0.32888467,0,0,0.32888467,506.85831,85.616494)" fill="#00F"/>
  <path id="path5819" opacity="0.76388891" style="enable-background:accumulate;color:#000000;" d="m45.609-32.435a4.5609,4.5609,0,1,1,-9.1217,0,4.5609,4.5609,0,1,1,9.1217,0z" fill-rule="nonzero" transform="matrix(0.32888467,0,0,0.32888467,553.84747,78.992594)" fill="#00F"/>
  <path id="path5821" opacity="0.76388891" style="enable-background:accumulate;color:#000000;" d="m45.609-32.435a4.5609,4.5609,0,1,1,-9.1217,0,4.5609,4.5609,0,1,1,9.1217,0z" fill-rule="nonzero" transform="matrix(0.32888467,0,0,0.32888467,502.11293,86.490534)" fill="#00F"/>
  <path id="path5823" opacity="0.76388891" style="enable-background:accumulate;color:#000000;" d="m45.609-32.435a4.5609,4.5609,0,1,1,-9.1217,0,4.5609,4.5609,0,1,1,9.1217,0z" fill-rule="nonzero" transform="matrix(0.32888467,0,0,0.32888467,498.47977,89.397064)" fill="#00F"/>
  <path id="path5825" opacity="0.76388891" style="enable-background:accumulate;color:#000000;" d="m45.609-32.435a4.5609,4.5609,0,1,1,-9.1217,0,4.5609,4.5609,0,1,1,9.1217,0z" fill-rule="nonzero" transform="matrix(0.32888467,0,0,0.32888467,543.6577,67.709554)" fill="#00F"/>
  <path id="path5827" opacity="0.76388891" style="enable-background:accumulate;color:#000000;" d="m45.609-32.435a4.5609,4.5609,0,1,1,-9.1217,0,4.5609,4.5609,0,1,1,9.1217,0z" fill-rule="nonzero" transform="matrix(0.32888467,0,0,0.32888467,523.68593,87.318016)" fill="#00F"/>
  <path id="path5829" opacity="0.76388891" style="enable-background:accumulate;color:#000000;" d="m45.609-32.435a4.5609,4.5609,0,1,1,-9.1217,0,4.5609,4.5609,0,1,1,9.1217,0z" fill-rule="nonzero" transform="matrix(0.32888467,0,0,0.32888467,504.78287,89.871844)" fill="#00F"/>
  <path id="path5831" opacity="0.76388891" style="enable-background:accumulate;color:#000000;" d="m45.609-32.435a4.5609,4.5609,0,1,1,-9.1217,0,4.5609,4.5609,0,1,1,9.1217,0z" fill-rule="nonzero" transform="matrix(0.32888467,0,0,0.32888467,520.76878,83.695464)" fill="#00F"/>
  <path id="path5833" opacity="0.76388891" style="enable-background:accumulate;color:#000000;" d="m45.609-32.435a4.5609,4.5609,0,1,1,-9.1217,0,4.5609,4.5609,0,1,1,9.1217,0z" fill-rule="nonzero" transform="matrix(0.32888467,0,0,0.32888467,507.79346,92.135144)" fill="#00F"/>
  <path id="path5835" opacity="0.76388891" style="enable-background:accumulate;color:#000000;" d="m45.609-32.435a4.5609,4.5609,0,1,1,-9.1217,0,4.5609,4.5609,0,1,1,9.1217,0z" fill-rule="nonzero" transform="matrix(0.32888467,0,0,0.32888467,554.43046,69.414674)" fill="#00F"/>
  <path id="path5837" opacity="0.76388891" style="enable-background:accumulate;color:#000000;" d="m45.609-32.435a4.5609,4.5609,0,1,1,-9.1217,0,4.5609,4.5609,0,1,1,9.1217,0z" fill-rule="nonzero" transform="matrix(0.32888467,0,0,0.32888467,542.56775,85.512044)" fill="#00F"/>
  <path id="path5839" opacity="0.76388891" style="enable-background:accumulate;color:#000000;" d="m45.609-32.435a4.5609,4.5609,0,1,1,-9.1217,0,4.5609,4.5609,0,1,1,9.1217,0z" fill-rule="nonzero" transform="matrix(0.32888467,0,0,0.32888467,528.10065,89.629014)" fill="#00F"/>
  <path id="path5841" opacity="0.76388891" style="enable-background:accumulate;color:#000000;" d="m45.609-32.435a4.5609,4.5609,0,1,1,-9.1217,0,4.5609,4.5609,0,1,1,9.1217,0z" fill-rule="nonzero" transform="matrix(0.32888467,0,0,0.32888467,533.72144,92.303594)" fill="#00F"/>
  <path id="path5843" opacity="0.76388891" style="enable-background:accumulate;color:#000000;" d="m45.609-32.435a4.5609,4.5609,0,1,1,-9.1217,0,4.5609,4.5609,0,1,1,9.1217,0z" fill-rule="nonzero" transform="matrix(0.32888467,0,0,0.32888467,529.90164,81.208404)" fill="#00F"/>
  <path id="path5845" opacity="0.76388891" style="enable-background:accumulate;color:#000000;" d="m45.609-32.435a4.5609,4.5609,0,1,1,-9.1217,0,4.5609,4.5609,0,1,1,9.1217,0z" fill-rule="nonzero" transform="matrix(0.32888467,0,0,0.32888467,547.65418,75.339194)" fill="#00F"/>
  <path id="path5847" opacity="0.76388891" style="enable-background:accumulate;color:#000000;" d="m45.609-32.435a4.5609,4.5609,0,1,1,-9.1217,0,4.5609,4.5609,0,1,1,9.1217,0z" fill-rule="nonzero" transform="matrix(0.32888467,0,0,0.32888467,542.70572,73.80102)" fill="#00F"/>
  <path id="path5849" opacity="0.76388891" style="enable-background:accumulate;color:#000000;" d="m45.609-32.435a4.5609,4.5609,0,1,1,-9.1217,0,4.5609,4.5609,0,1,1,9.1217,0z" fill-rule="nonzero" transform="matrix(0.32888467,0,0,0.32888467,564.00594,72.395147)" fill="#00F"/>
  <path id="path5851" opacity="0.76388891" style="enable-background:accumulate;color:#000000;" d="m45.609-32.435a4.5609,4.5609,0,1,1,-9.1217,0,4.5609,4.5609,0,1,1,9.1217,0z" fill-rule="nonzero" transform="matrix(0.32888467,0,0,0.32888467,509.18398,88.501984)" fill="#00F"/>
  <path id="path5853" opacity="0.76388891" style="enable-background:accumulate;color:#000000;" d="m45.609-32.435a4.5609,4.5609,0,1,1,-9.1217,0,4.5609,4.5609,0,1,1,9.1217,0z" fill-rule="nonzero" transform="matrix(0.32888467,0,0,0.32888467,511.89148,86.616034)" fill="#00F"/>
  <path id="path5855" opacity="0.76388891" style="enable-background:accumulate;color:#000000;" d="m45.609-32.435a4.5609,4.5609,0,1,1,-9.1217,0,4.5609,4.5609,0,1,1,9.1217,0z" fill-rule="nonzero" transform="matrix(0.32888467,0,0,0.32888467,514.84012,97.708734)" fill="#00F"/>
  <path id="path5857" opacity="0.76388891" style="enable-background:accumulate;color:#000000;" d="m45.609-32.435a4.5609,4.5609,0,1,1,-9.1217,0,4.5609,4.5609,0,1,1,9.1217,0z" fill-rule="nonzero" transform="matrix(0.32888467,0,0,0.32888467,507.81039,97.597274)" fill="#00F"/>
  <path id="path5859" opacity="0.76388891" style="enable-background:accumulate;color:#000000;" d="m45.609-32.435a4.5609,4.5609,0,1,1,-9.1217,0,4.5609,4.5609,0,1,1,9.1217,0z" fill-rule="nonzero" transform="matrix(0.32888467,0,0,0.32888467,513.84804,94.985524)" fill="#00F"/>
  <path id="path5861" opacity="0.76388891" style="enable-background:accumulate;color:#000000;" d="m45.609-32.435a4.5609,4.5609,0,1,1,-9.1217,0,4.5609,4.5609,0,1,1,9.1217,0z" fill-rule="nonzero" transform="matrix(0.32888467,0,0,0.32888467,511.5422,95.348004)" fill="#00F"/>
  <path id="path5863" opacity="0.76388891" style="enable-background:accumulate;color:#000000;" d="m45.609-32.435a4.5609,4.5609,0,1,1,-9.1217,0,4.5609,4.5609,0,1,1,9.1217,0z" fill-rule="nonzero" transform="matrix(0.32888467,0,0,0.32888467,504.41751,94.636244)" fill="#00F"/>
  <path id="path5865" opacity="0.76388891" style="enable-background:accumulate;color:#000000;" d="m45.609-32.435a4.5609,4.5609,0,1,1,-9.1217,0,4.5609,4.5609,0,1,1,9.1217,0z" fill-rule="nonzero" transform="matrix(0.32888467,0,0,0.32888467,516.293,90.794184)" fill="#00F"/>
  <path id="path5867" opacity="0.76388891" style="enable-background:accumulate;color:#000000;" d="m45.609-32.435a4.5609,4.5609,0,1,1,-9.1217,0,4.5609,4.5609,0,1,1,9.1217,0z" fill-rule="nonzero" transform="matrix(0.32888467,0,0,0.32888467,425.73291,57.282)" fill="#00F"/>
  <path id="path5869" opacity="0.76388891" style="enable-background:accumulate;color:#000000;" d="m45.609-32.435a4.5609,4.5609,0,1,1,-9.1217,0,4.5609,4.5609,0,1,1,9.1217,0z" fill-rule="nonzero" transform="matrix(0.32888467,0,0,0.32888467,412.16349,56.80722)" fill="#00F"/>
  <path id="path5871" opacity="0.76388891" style="enable-background:accumulate;color:#000000;" d="m45.609-32.435a4.5609,4.5609,0,1,1,-9.1217,0,4.5609,4.5609,0,1,1,9.1217,0z" fill-rule="nonzero" transform="matrix(0.32888467,0,0,0.32888467,408.53033,59.71375)" fill="#00F"/>
  <path id="path5873" opacity="0.76388891" style="enable-background:accumulate;color:#000000;" d="m45.609-32.435a4.5609,4.5609,0,1,1,-9.1217,0,4.5609,4.5609,0,1,1,9.1217,0z" fill-rule="nonzero" transform="matrix(0.32888467,0,0,0.32888467,432.27261,59.09858)" fill="#00F"/>
  <path id="path5875" opacity="0.76388891" style="enable-background:accumulate;color:#000000;" d="m45.609-32.435a4.5609,4.5609,0,1,1,-9.1217,0,4.5609,4.5609,0,1,1,9.1217,0z" fill-rule="nonzero" transform="matrix(0.32888467,0,0,0.32888467,414.83343,60.18853)" fill="#00F"/>
  <path id="path5877" opacity="0.76388891" style="enable-background:accumulate;color:#000000;" d="m45.609-32.435a4.5609,4.5609,0,1,1,-9.1217,0,4.5609,4.5609,0,1,1,9.1217,0z" fill-rule="nonzero" transform="matrix(0.32888467,0,0,0.32888467,436.26908,57.64532)" fill="#00F"/>
  <path id="path5879" opacity="0.76388891" style="enable-background:accumulate;color:#000000;" d="m45.609-32.435a4.5609,4.5609,0,1,1,-9.1217,0,4.5609,4.5609,0,1,1,9.1217,0z" fill-rule="nonzero" transform="matrix(0.32888467,0,0,0.32888467,419.23454,58.81867)" fill="#00F"/>
  <path id="path5881" opacity="0.76388891" style="enable-background:accumulate;color:#000000;" d="m45.609-32.435a4.5609,4.5609,0,1,1,-9.1217,0,4.5609,4.5609,0,1,1,9.1217,0z" fill-rule="nonzero" transform="matrix(0.32888467,0,0,0.32888467,421.94204,56.93272)" fill="#00F"/>
  <path id="path5883" opacity="0.76388891" style="enable-background:accumulate;color:#000000;" d="m45.609-32.435a4.5609,4.5609,0,1,1,-9.1217,0,4.5609,4.5609,0,1,1,9.1217,0z" fill-rule="nonzero" transform="matrix(0.32888467,0,0,0.32888467,426.34356,61.11087)" fill="#00F"/>
  <path id="path3068" opacity="0.76388891" style="enable-background:accumulate;color:#000000;" d="m45.609-32.435a4.5609,4.5609,0,1,1,-9.1217,0,4.5609,4.5609,0,1,1,9.1217,0z" fill-rule="nonzero" transform="matrix(0.32888467,0,0,0.32888467,568.88201,57.58975)" fill="#00F"/>
  <path id="path3070" opacity="0.76388891" style="enable-background:accumulate;color:#000000;" d="m45.609-32.435a4.5609,4.5609,0,1,1,-9.1217,0,4.5609,4.5609,0,1,1,9.1217,0z" fill-rule="nonzero" transform="matrix(0.32888467,0,0,0.32888467,562.83809,63.633668)" fill="#00F"/>
  <path id="path3072" opacity="0.76388891" style="enable-background:accumulate;color:#000000;" d="m45.609-32.435a4.5609,4.5609,0,1,1,-9.1217,0,4.5609,4.5609,0,1,1,9.1217,0z" fill-rule="nonzero" transform="matrix(0.32888467,0,0,0.32888467,565.62759,52.708124)" fill="#00F"/>
  <path id="path3074" opacity="0.76388891" style="enable-background:accumulate;color:#000000;" d="m45.609-32.435a4.5609,4.5609,0,1,1,-9.1217,0,4.5609,4.5609,0,1,1,9.1217,0z" fill-rule="nonzero" transform="matrix(0.32888467,0,0,0.32888467,558.8863,58.054667)" fill="#00F"/>
  <path id="path3078" opacity="0.76388891" style="enable-background:accumulate;color:#000000;" d="m45.609-32.435a4.5609,4.5609,0,1,1,-9.1217,0,4.5609,4.5609,0,1,1,9.1217,0z" fill-rule="nonzero" transform="matrix(0.32888467,0,0,0.32888467,550.5178,84.554922)" fill="#00F"/>
  <path id="path3080" opacity="0.76388891" style="enable-background:accumulate;color:#000000;" d="m45.609-32.435a4.5609,4.5609,0,1,1,-9.1217,0,4.5609,4.5609,0,1,1,9.1217,0z" fill-rule="nonzero" transform="matrix(0.32888467,0,0,0.32888467,563.30301,57.589751)" fill="#00F"/>
  <path id="path3082" opacity="0.76388891" style="enable-background:accumulate;color:#000000;" d="m45.609-32.435a4.5609,4.5609,0,1,1,-9.1217,0,4.5609,4.5609,0,1,1,9.1217,0z" fill-rule="nonzero" transform="matrix(0.32888467,0,0,0.32888467,553.53976,62.703835)" fill="#00F"/>
  <path id="path4473" opacity="0.76388891" style="enable-background:accumulate;color:#000000;" d="m45.609-32.435a4.5609,4.5609,0,1,1,-9.1217,0,4.5609,4.5609,0,1,1,9.1217,0z" fill-rule="nonzero" transform="matrix(0.32888467,0,0,0.32888467,551.20923,95.239894)" fill="#00F"/>
  <path id="path4475" opacity="0.76388891" style="enable-background:accumulate;color:#000000;" d="m45.609-32.435a4.5609,4.5609,0,1,1,-9.1217,0,4.5609,4.5609,0,1,1,9.1217,0z" fill-rule="nonzero" transform="matrix(0.32888467,0,0,0.32888467,562.70087,80.385608)" fill="#00F"/>
  <path id="path4477" opacity="0.76388891" style="enable-background:accumulate;color:#000000;" d="m45.609-32.435a4.5609,4.5609,0,1,1,-9.1217,0,4.5609,4.5609,0,1,1,9.1217,0z" fill-rule="nonzero" transform="matrix(0.32888467,0,0,0.32888467,559.42077,89.065588)" fill="#00F"/>
  <path id="path4479" opacity="0.76388891" style="enable-background:accumulate;color:#000000;" d="m45.609-32.435a4.5609,4.5609,0,1,1,-9.1217,0,4.5609,4.5609,0,1,1,9.1217,0z" fill-rule="nonzero" transform="matrix(0.32888467,0,0,0.32888467,241.20865,58.515194)" fill="#00F"/>
  <path id="path4481" opacity="0.76388891" style="enable-background:accumulate;color:#000000;" d="m45.609-32.435a4.5609,4.5609,0,1,1,-9.1217,0,4.5609,4.5609,0,1,1,9.1217,0z" fill-rule="nonzero" transform="matrix(0.32888467,0,0,0.32888467,247.02171,59.968454)" fill="#00F"/>
  <path id="path4483" opacity="0.76388891" style="enable-background:accumulate;color:#000000;" d="m45.609-32.435a4.5609,4.5609,0,1,1,-9.1217,0,4.5609,4.5609,0,1,1,9.1217,0z" fill-rule="nonzero" transform="matrix(0.32888467,0,0,0.32888467,243.38855,62.874984)" fill="#00F"/>
  <path id="path4485" opacity="0.76388891" style="enable-background:accumulate;color:#000000;" d="m45.609-32.435a4.5609,4.5609,0,1,1,-9.1217,0,4.5609,4.5609,0,1,1,9.1217,0z" fill-rule="nonzero" transform="matrix(0.32888467,0,0,0.32888467,256.23134,69.889454)" fill="#00F"/>
  <path id="path4487" opacity="0.76388891" style="enable-background:accumulate;color:#000000;" d="m45.609-32.435a4.5609,4.5609,0,1,1,-9.1217,0,4.5609,4.5609,0,1,1,9.1217,0z" fill-rule="nonzero" transform="matrix(0.32888467,0,0,0.32888467,254.41476,61.169864)" fill="#00F"/>
  <path id="path4489" opacity="0.76388891" style="enable-background:accumulate;color:#000000;" d="m45.609-32.435a4.5609,4.5609,0,1,1,-9.1217,0,4.5609,4.5609,0,1,1,9.1217,0z" fill-rule="nonzero" transform="matrix(0.32888467,0,0,0.32888467,290.01975,80.425624)" fill="#00F"/>
  <path id="path4491" opacity="0.76388891" style="enable-background:accumulate;color:#000000;" d="m45.609-32.435a4.5609,4.5609,0,1,1,-9.1217,0,4.5609,4.5609,0,1,1,9.1217,0z" fill-rule="nonzero" transform="matrix(0.32888467,0,0,0.32888467,239.75539,66.508144)" fill="#00F"/>
  <path id="path4493" opacity="0.76388891" style="enable-background:accumulate;color:#000000;" d="m45.609-32.435a4.5609,4.5609,0,1,1,-9.1217,0,4.5609,4.5609,0,1,1,9.1217,0z" fill-rule="nonzero" transform="matrix(0.32888467,0,0,0.32888467,272.09053,79.950844)" fill="#00F"/>
  <path id="path4495" opacity="0.23893804" stroke-linejoin="miter" style="enable-background:accumulate;color:#000000;" d="m45.609-32.435a4.5609,4.5609,0,1,1,-9.1217,0,4.5609,4.5609,0,1,1,9.1217,0z" transform="matrix(0.32888467,0,0,0.32888467,334.70763,77.882404)" stroke-dashoffset="0" stroke-linecap="butt" stroke-miterlimit="4" stroke-dasharray="none" fill="none"/>
  <path id="path4497" opacity="0.76388891" style="enable-background:accumulate;color:#000000;" d="m45.609-32.435a4.5609,4.5609,0,1,1,-9.1217,0,4.5609,4.5609,0,1,1,9.1217,0z" fill-rule="nonzero" transform="matrix(0.32888467,0,0,0.32888467,247.14844,66.982924)" fill="#00F"/>
  <path id="path4499" opacity="0.76388891" style="enable-background:accumulate;color:#000000;" d="m45.609-32.435a4.5609,4.5609,0,1,1,-9.1217,0,4.5609,4.5609,0,1,1,9.1217,0z" fill-rule="nonzero" transform="matrix(0.32888467,0,0,0.32888467,242.42532,69.889454)" fill="#00F"/>
  <path id="path4501" opacity="0.76388891" style="enable-background:accumulate;color:#000000;" d="m45.609-32.435a4.5609,4.5609,0,1,1,-9.1217,0,4.5609,4.5609,0,1,1,9.1217,0z" fill-rule="nonzero" transform="matrix(0.32888467,0,0,0.32888467,259.73778,65.054884)" fill="#00F"/>
  <path id="path4503" opacity="0.76388891" style="enable-background:accumulate;color:#000000;" d="m45.609-32.435a4.5609,4.5609,0,1,1,-9.1217,0,4.5609,4.5609,0,1,1,9.1217,0z" fill-rule="nonzero" transform="matrix(0.32888467,0,0,0.32888467,265.55084,66.508144)" fill="#00F"/>
  <path id="path4505" opacity="0.76388891" style="enable-background:accumulate;color:#000000;" d="m45.609-32.435a4.5609,4.5609,0,1,1,-9.1217,0,4.5609,4.5609,0,1,1,9.1217,0z" fill-rule="nonzero" transform="matrix(0.32888467,0,0,0.32888467,279.47369,91.296214)" fill="#00F"/>
  <path id="path4507" opacity="0.76388891" style="enable-background:accumulate;color:#000000;" d="m45.609-32.435a4.5609,4.5609,0,1,1,-9.1217,0,4.5609,4.5609,0,1,1,9.1217,0z" fill-rule="nonzero" transform="matrix(0.32888467,0,0,0.32888467,271.85394,73.522614)" fill="#00F"/>
  <path id="path4509" opacity="0.76388891" style="enable-background:accumulate;color:#000000;" d="m45.609-32.435a4.5609,4.5609,0,1,1,-9.1217,0,4.5609,4.5609,0,1,1,9.1217,0z" fill-rule="nonzero" transform="matrix(0.32888467,0,0,0.32888467,272.94388,67.709554)" fill="#00F"/>
  <path id="path4511" opacity="0.76388891" style="enable-background:accumulate;color:#000000;" d="m45.609-32.435a4.5609,4.5609,0,1,1,-9.1217,0,4.5609,4.5609,0,1,1,9.1217,0z" fill-rule="nonzero" transform="matrix(0.32888467,0,0,0.32888467,268.22077,69.889454)" fill="#00F"/>
  <path id="path4513" opacity="0.76388891" style="enable-background:accumulate;color:#000000;" d="m45.609-32.435a4.5609,4.5609,0,1,1,-9.1217,0,4.5609,4.5609,0,1,1,9.1217,0z" fill-rule="nonzero" transform="matrix(0.32888467,0,0,0.32888467,258.28451,73.047834)" fill="#00F"/>
  <path id="path4515" opacity="0.76388891" style="enable-background:accumulate;color:#000000;" d="m45.609-32.435a4.5609,4.5609,0,1,1,-9.1217,0,4.5609,4.5609,0,1,1,9.1217,0z" fill-rule="nonzero" transform="matrix(0.32888467,0,0,0.32888467,248.83829,75.227734)" fill="#00F"/>
  <path id="path4517" opacity="0.76388891" style="enable-background:accumulate;color:#000000;" d="m45.609-32.435a4.5609,4.5609,0,1,1,-9.1217,0,4.5609,4.5609,0,1,1,9.1217,0z" fill-rule="nonzero" transform="matrix(0.32888467,0,0,0.32888467,284.93332,79.335674)" fill="#00F"/>
  <path id="path4519" opacity="0.76388891" style="enable-background:accumulate;color:#000000;" d="m45.609-32.435a4.5609,4.5609,0,1,1,-9.1217,0,4.5609,4.5609,0,1,1,9.1217,0z" fill-rule="nonzero" transform="matrix(0.32888467,0,0,0.32888467,265.67756,74.249244)" fill="#00F"/>
  <path id="path4521" opacity="0.76388891" style="enable-background:accumulate;color:#000000;" d="m45.609-32.435a4.5609,4.5609,0,1,1,-9.1217,0,4.5609,4.5609,0,1,1,9.1217,0z" fill-rule="nonzero" transform="matrix(0.32888467,0,0,0.32888467,260.95445,76.429144)" fill="#00F"/>
  <path id="path4523" opacity="0.76388891" style="enable-background:accumulate;color:#000000;" d="m45.609-32.435a4.5609,4.5609,0,1,1,-9.1217,0,4.5609,4.5609,0,1,1,9.1217,0z" fill-rule="nonzero" transform="matrix(0.32888467,0,0,0.32888467,281.17343,71.957894)" fill="#00F"/>
  <path id="path4525" opacity="0.76388891" style="enable-background:accumulate;color:#000000;" d="m45.609-32.435a4.5609,4.5609,0,1,1,-9.1217,0,4.5609,4.5609,0,1,1,9.1217,0z" fill-rule="nonzero" transform="matrix(0.32888467,0,0,0.32888467,286.98649,73.411154)" fill="#00F"/>
  <path id="path4527" opacity="0.76388891" style="enable-background:accumulate;color:#000000;" d="m45.609-32.435a4.5609,4.5609,0,1,1,-9.1217,0,4.5609,4.5609,0,1,1,9.1217,0z" fill-rule="nonzero" transform="matrix(0.32888467,0,0,0.32888467,276.81364,74.864424)" fill="#00F"/>
  <path id="path4529" opacity="0.23893804" stroke-linejoin="miter" style="enable-background:accumulate;color:#000000;" d="m45.609-32.435a4.5609,4.5609,0,1,1,-9.1217,0,4.5609,4.5609,0,1,1,9.1217,0z" transform="matrix(0.32888467,0,0,0.32888467,322.35488,81.152254)" stroke-dashoffset="0" stroke-linecap="butt" stroke-miterlimit="4" stroke-dasharray="none" fill="none"/>
  <path id="path4531" opacity="0.76388891" style="enable-background:accumulate;color:#000000;" d="m45.609-32.435a4.5609,4.5609,0,1,1,-9.1217,0,4.5609,4.5609,0,1,1,9.1217,0z" fill-rule="nonzero" transform="matrix(0.32888467,0,0,0.32888467,313.99861,92.778374)" fill="#00F"/>
  <path id="path4533" opacity="0.76388891" style="enable-background:accumulate;color:#000000;" d="m45.609-32.435a4.5609,4.5609,0,1,1,-9.1217,0,4.5609,4.5609,0,1,1,9.1217,0z" fill-rule="nonzero" transform="matrix(0.32888467,0,0,0.32888467,295.46949,81.515574)" fill="#00F"/>
  <path id="path4535" opacity="0.76388891" style="enable-background:accumulate;color:#000000;" d="m45.609-32.435a4.5609,4.5609,0,1,1,-9.1217,0,4.5609,4.5609,0,1,1,9.1217,0z" fill-rule="nonzero" transform="matrix(0.32888467,0,0,0.32888467,279.72017,79.950844)" fill="#00F"/>
  <path id="path4537" opacity="0.76388891" style="enable-background:accumulate;color:#000000;" d="m45.609-32.435a4.5609,4.5609,0,1,1,-9.1217,0,4.5609,4.5609,0,1,1,9.1217,0z" fill-rule="nonzero" transform="matrix(0.32888467,0,0,0.32888467,276.08701,82.857374)" fill="#00F"/>
  <path id="path4539" opacity="0.76388891" style="enable-background:accumulate;color:#000000;" d="m45.609-32.435a4.5609,4.5609,0,1,1,-9.1217,0,4.5609,4.5609,0,1,1,9.1217,0z" fill-rule="nonzero" transform="matrix(0.32888467,0,0,0.32888467,288.11894,91.156664)" fill="#00F"/>
  <path id="path4541" opacity="0.76388891" style="enable-background:accumulate;color:#000000;" d="m45.609-32.435a4.5609,4.5609,0,1,1,-9.1217,0,4.5609,4.5609,0,1,1,9.1217,0z" fill-rule="nonzero" transform="matrix(0.32888467,0,0,0.32888467,226.62561,55.734574)" fill="#00F"/>
  <path id="path4543" opacity="0.76388891" style="enable-background:accumulate;color:#000000;" d="m45.609-32.435a4.5609,4.5609,0,1,1,-9.1217,0,4.5609,4.5609,0,1,1,9.1217,0z" fill-rule="nonzero" transform="matrix(0.32888467,0,0,0.32888467,290.01975,84.785414)" fill="#00F"/>
  <path id="path4545" opacity="0.76388891" style="enable-background:accumulate;color:#000000;" d="m45.609-32.435a4.5609,4.5609,0,1,1,-9.1217,0,4.5609,4.5609,0,1,1,9.1217,0z" fill-rule="nonzero" transform="matrix(0.32888467,0,0,0.32888467,282.99002,84.673954)" fill="#00F"/>
  <path id="path4547" opacity="0.76388891" style="enable-background:accumulate;color:#000000;" d="m45.609-32.435a4.5609,4.5609,0,1,1,-9.1217,0,4.5609,4.5609,0,1,1,9.1217,0z" fill-rule="nonzero" transform="matrix(0.32888467,0,0,0.32888467,308.05883,91.940284)" fill="#00F"/>
  <path id="path4549" opacity="0.23893804" stroke-linejoin="miter" style="enable-background:accumulate;color:#000000;" d="m45.609-32.435a4.5609,4.5609,0,1,1,-9.1217,0,4.5609,4.5609,0,1,1,9.1217,0z" transform="matrix(0.32888467,0,0,0.32888467,329.41645,84.883079)" stroke-dashoffset="0" stroke-linecap="butt" stroke-miterlimit="4" stroke-dasharray="none" fill="none"/>
  <path id="path4551" opacity="0.76388891" style="enable-background:accumulate;color:#000000;" d="m45.609-32.435a4.5609,4.5609,0,1,1,-9.1217,0,4.5609,4.5609,0,1,1,9.1217,0z" fill-rule="nonzero" transform="matrix(0.32888467,0,0,0.32888467,311.81871,86.965314)" fill="#00F"/>
  <path id="path4553" opacity="0.76388891" style="enable-background:accumulate;color:#000000;" d="m45.609-32.435a4.5609,4.5609,0,1,1,-9.1217,0,4.5609,4.5609,0,1,1,9.1217,0z" fill-rule="nonzero" transform="matrix(0.32888467,0,0,0.32888467,302.99467,85.616494)" fill="#00F"/>
  <path id="path4555" opacity="0.23893804" stroke-linejoin="miter" style="enable-background:accumulate;color:#000000;" d="m45.609-32.435a4.5609,4.5609,0,1,1,-9.1217,0,4.5609,4.5609,0,1,1,9.1217,0z" transform="matrix(0.32888467,0,0,0.32888467,349.98383,78.992594)" stroke-dashoffset="0" stroke-linecap="butt" stroke-miterlimit="4" stroke-dasharray="none" fill="none"/>
  <path id="path4557" opacity="0.76388891" style="enable-background:accumulate;color:#000000;" d="m45.609-32.435a4.5609,4.5609,0,1,1,-9.1217,0,4.5609,4.5609,0,1,1,9.1217,0z" fill-rule="nonzero" transform="matrix(0.32888467,0,0,0.32888467,298.24929,86.490534)" fill="#00F"/>
  <path id="path4559" opacity="0.76388891" style="enable-background:accumulate;color:#000000;" d="m45.609-32.435a4.5609,4.5609,0,1,1,-9.1217,0,4.5609,4.5609,0,1,1,9.1217,0z" fill-rule="nonzero" transform="matrix(0.32888467,0,0,0.32888467,294.61613,89.397064)" fill="#00F"/>
  <path id="path4561" opacity="0.23893804" stroke-linejoin="miter" style="enable-background:accumulate;color:#000000;" d="m45.609-32.435a4.5609,4.5609,0,1,1,-9.1217,0,4.5609,4.5609,0,1,1,9.1217,0z" transform="matrix(0.32888467,0,0,0.32888467,339.79406,67.709554)" stroke-dashoffset="0" stroke-linecap="butt" stroke-miterlimit="4" stroke-dasharray="none" fill="none"/>
  <path id="path4563" opacity="0.76388891" style="enable-background:accumulate;color:#000000;" d="m45.609-32.435a4.5609,4.5609,0,1,1,-9.1217,0,4.5609,4.5609,0,1,1,9.1217,0z" fill-rule="nonzero" transform="matrix(0.32888467,0,0,0.32888467,319.82229,87.318016)" fill="#00F"/>
  <path id="path4565" opacity="0.76388891" style="enable-background:accumulate;color:#000000;" d="m45.609-32.435a4.5609,4.5609,0,1,1,-9.1217,0,4.5609,4.5609,0,1,1,9.1217,0z" fill-rule="nonzero" transform="matrix(0.32888467,0,0,0.32888467,300.91923,89.871844)" fill="#00F"/>
  <path id="path4567" opacity="0.76388891" style="enable-background:accumulate;color:#000000;" d="m45.609-32.435a4.5609,4.5609,0,1,1,-9.1217,0,4.5609,4.5609,0,1,1,9.1217,0z" fill-rule="nonzero" transform="matrix(0.32888467,0,0,0.32888467,316.90514,83.695464)" fill="#00F"/>
  <path id="path4569" opacity="0.76388891" style="enable-background:accumulate;color:#000000;" d="m45.609-32.435a4.5609,4.5609,0,1,1,-9.1217,0,4.5609,4.5609,0,1,1,9.1217,0z" fill-rule="nonzero" transform="matrix(0.32888467,0,0,0.32888467,303.92982,92.135144)" fill="#00F"/>
  <path id="path4571" opacity="0.23893804" stroke-linejoin="miter" style="enable-background:accumulate;color:#000000;" d="m45.609-32.435a4.5609,4.5609,0,1,1,-9.1217,0,4.5609,4.5609,0,1,1,9.1217,0z" transform="matrix(0.32888467,0,0,0.32888467,350.56682,69.414674)" stroke-dashoffset="0" stroke-linecap="butt" stroke-miterlimit="4" stroke-dasharray="none" fill="none"/>
  <path id="path4573" opacity="0.23893804" stroke-linejoin="miter" style="enable-background:accumulate;color:#000000;" d="m45.609-32.435a4.5609,4.5609,0,1,1,-9.1217,0,4.5609,4.5609,0,1,1,9.1217,0z" transform="matrix(0.32888467,0,0,0.32888467,338.70411,85.512044)" stroke-dashoffset="0" stroke-linecap="butt" stroke-miterlimit="4" stroke-dasharray="none" fill="none"/>
  <path id="path4575" opacity="0.23893804" stroke-linejoin="miter" style="enable-background:accumulate;color:#000000;" d="m45.609-32.435a4.5609,4.5609,0,1,1,-9.1217,0,4.5609,4.5609,0,1,1,9.1217,0z" transform="matrix(0.32888467,0,0,0.32888467,324.23701,89.629014)" stroke-dashoffset="0" stroke-linecap="butt" stroke-miterlimit="4" stroke-dasharray="none" fill="none"/>
  <path id="path4577" opacity="0.23893804" stroke-linejoin="miter" style="enable-background:accumulate;color:#000000;" d="m45.609-32.435a4.5609,4.5609,0,1,1,-9.1217,0,4.5609,4.5609,0,1,1,9.1217,0z" transform="matrix(0.32888467,0,0,0.32888467,329.8578,92.303594)" stroke-dashoffset="0" stroke-linecap="butt" stroke-miterlimit="4" stroke-dasharray="none" fill="none"/>
  <path id="path4579" opacity="0.23893804" stroke-linejoin="miter" style="enable-background:accumulate;color:#000000;" d="m45.609-32.435a4.5609,4.5609,0,1,1,-9.1217,0,4.5609,4.5609,0,1,1,9.1217,0z" transform="matrix(0.32888467,0,0,0.32888467,326.038,81.208404)" stroke-dashoffset="0" stroke-linecap="butt" stroke-miterlimit="4" stroke-dasharray="none" fill="none"/>
  <path id="path4581" opacity="0.23893804" stroke-linejoin="miter" style="enable-background:accumulate;color:#000000;" d="m45.609-32.435a4.5609,4.5609,0,1,1,-9.1217,0,4.5609,4.5609,0,1,1,9.1217,0z" transform="matrix(0.32888467,0,0,0.32888467,343.79054,75.339194)" stroke-dashoffset="0" stroke-linecap="butt" stroke-miterlimit="4" stroke-dasharray="none" fill="none"/>
  <path id="path4583" opacity="0.23893804" stroke-linejoin="miter" style="enable-background:accumulate;color:#000000;" d="m45.609-32.435a4.5609,4.5609,0,1,1,-9.1217,0,4.5609,4.5609,0,1,1,9.1217,0z" transform="matrix(0.32888467,0,0,0.32888467,338.84208,73.80102)" stroke-dashoffset="0" stroke-linecap="butt" stroke-miterlimit="4" stroke-dasharray="none" fill="none"/>
  <path id="path4585" opacity="0.23893804" stroke-linejoin="miter" style="enable-background:accumulate;color:#000000;" d="m45.609-32.435a4.5609,4.5609,0,1,1,-9.1217,0,4.5609,4.5609,0,1,1,9.1217,0z" transform="matrix(0.32888467,0,0,0.32888467,360.1423,72.395147)" stroke-dashoffset="0" stroke-linecap="butt" stroke-miterlimit="4" stroke-dasharray="none" fill="none"/>
  <path id="path4587" opacity="0.76388891" style="enable-background:accumulate;color:#000000;" d="m45.609-32.435a4.5609,4.5609,0,1,1,-9.1217,0,4.5609,4.5609,0,1,1,9.1217,0z" fill-rule="nonzero" transform="matrix(0.32888467,0,0,0.32888467,305.32034,88.501984)" fill="#00F"/>
  <path id="path4589" opacity="0.76388891" style="enable-background:accumulate;color:#000000;" d="m45.609-32.435a4.5609,4.5609,0,1,1,-9.1217,0,4.5609,4.5609,0,1,1,9.1217,0z" fill-rule="nonzero" transform="matrix(0.32888467,0,0,0.32888467,308.02784,86.616034)" fill="#00F"/>
  <path id="path4591" opacity="0.76388891" style="enable-background:accumulate;color:#000000;" d="m45.609-32.435a4.5609,4.5609,0,1,1,-9.1217,0,4.5609,4.5609,0,1,1,9.1217,0z" fill-rule="nonzero" transform="matrix(0.32888467,0,0,0.32888467,310.97648,97.708734)" fill="#00F"/>
  <path id="path4593" opacity="0.76388891" style="enable-background:accumulate;color:#000000;" d="m45.609-32.435a4.5609,4.5609,0,1,1,-9.1217,0,4.5609,4.5609,0,1,1,9.1217,0z" fill-rule="nonzero" transform="matrix(0.32888467,0,0,0.32888467,303.94675,97.597274)" fill="#00F"/>
  <path id="path4595" opacity="0.76388891" style="enable-background:accumulate;color:#000000;" d="m45.609-32.435a4.5609,4.5609,0,1,1,-9.1217,0,4.5609,4.5609,0,1,1,9.1217,0z" fill-rule="nonzero" transform="matrix(0.32888467,0,0,0.32888467,309.9844,94.985524)" fill="#00F"/>
  <path id="path4597" opacity="0.76388891" style="enable-background:accumulate;color:#000000;" d="m45.609-32.435a4.5609,4.5609,0,1,1,-9.1217,0,4.5609,4.5609,0,1,1,9.1217,0z" fill-rule="nonzero" transform="matrix(0.32888467,0,0,0.32888467,307.67856,95.348004)" fill="#00F"/>
  <path id="path4599" opacity="0.76388891" style="enable-background:accumulate;color:#000000;" d="m45.609-32.435a4.5609,4.5609,0,1,1,-9.1217,0,4.5609,4.5609,0,1,1,9.1217,0z" fill-rule="nonzero" transform="matrix(0.32888467,0,0,0.32888467,300.55387,94.636244)" fill="#00F"/>
  <path id="path4601" opacity="0.76388891" style="enable-background:accumulate;color:#000000;" d="m45.609-32.435a4.5609,4.5609,0,1,1,-9.1217,0,4.5609,4.5609,0,1,1,9.1217,0z" fill-rule="nonzero" transform="matrix(0.32888467,0,0,0.32888467,312.42936,90.794184)" fill="#00F"/>
  <path id="path4603" opacity="0.76388891" style="enable-background:accumulate;color:#000000;" d="m45.609-32.435a4.5609,4.5609,0,1,1,-9.1217,0,4.5609,4.5609,0,1,1,9.1217,0z" fill-rule="nonzero" transform="matrix(0.32888467,0,0,0.32888467,221.86927,57.282)" fill="#00F"/>
  <path id="path4605" opacity="0.76388891" style="enable-background:accumulate;color:#000000;" d="m45.609-32.435a4.5609,4.5609,0,1,1,-9.1217,0,4.5609,4.5609,0,1,1,9.1217,0z" fill-rule="nonzero" transform="matrix(0.32888467,0,0,0.32888467,208.29985,56.80722)" fill="#00F"/>
  <path id="path4607" opacity="0.76388891" style="enable-background:accumulate;color:#000000;" d="m45.609-32.435a4.5609,4.5609,0,1,1,-9.1217,0,4.5609,4.5609,0,1,1,9.1217,0z" fill-rule="nonzero" transform="matrix(0.32888467,0,0,0.32888467,204.66669,59.71375)" fill="#00F"/>
  <path id="path4609" opacity="0.76388891" style="enable-background:accumulate;color:#000000;" d="m45.609-32.435a4.5609,4.5609,0,1,1,-9.1217,0,4.5609,4.5609,0,1,1,9.1217,0z" fill-rule="nonzero" transform="matrix(0.32888467,0,0,0.32888467,228.40897,59.09858)" fill="#00F"/>
  <path id="path4611" opacity="0.76388891" style="enable-background:accumulate;color:#000000;" d="m45.609-32.435a4.5609,4.5609,0,1,1,-9.1217,0,4.5609,4.5609,0,1,1,9.1217,0z" fill-rule="nonzero" transform="matrix(0.32888467,0,0,0.32888467,210.96979,60.18853)" fill="#00F"/>
  <path id="path4613" opacity="0.76388891" style="enable-background:accumulate;color:#000000;" d="m45.609-32.435a4.5609,4.5609,0,1,1,-9.1217,0,4.5609,4.5609,0,1,1,9.1217,0z" fill-rule="nonzero" transform="matrix(0.32888467,0,0,0.32888467,232.40544,57.64532)" fill="#00F"/>
  <path id="path4615" opacity="0.76388891" style="enable-background:accumulate;color:#000000;" d="m45.609-32.435a4.5609,4.5609,0,1,1,-9.1217,0,4.5609,4.5609,0,1,1,9.1217,0z" fill-rule="nonzero" transform="matrix(0.32888467,0,0,0.32888467,215.3709,58.81867)" fill="#00F"/>
  <path id="path4617" opacity="0.76388891" style="enable-background:accumulate;color:#000000;" d="m45.609-32.435a4.5609,4.5609,0,1,1,-9.1217,0,4.5609,4.5609,0,1,1,9.1217,0z" fill-rule="nonzero" transform="matrix(0.32888467,0,0,0.32888467,218.0784,56.93272)" fill="#00F"/>
  <path id="path4619" opacity="0.76388891" style="enable-background:accumulate;color:#000000;" d="m45.609-32.435a4.5609,4.5609,0,1,1,-9.1217,0,4.5609,4.5609,0,1,1,9.1217,0z" fill-rule="nonzero" transform="matrix(0.32888467,0,0,0.32888467,222.47992,61.11087)" fill="#00F"/>
  <path id="path4621" opacity="0.23893804" stroke-linejoin="miter" style="enable-background:accumulate;color:#000000;" d="m45.609-32.435a4.5609,4.5609,0,1,1,-9.1217,0,4.5609,4.5609,0,1,1,9.1217,0z" transform="matrix(0.32888467,0,0,0.32888467,365.01837,57.58975)" stroke-dashoffset="0" stroke-linecap="butt" stroke-miterlimit="4" stroke-dasharray="none" fill="none"/>
  <path id="path4623" opacity="0.23893804" stroke-linejoin="miter" style="enable-background:accumulate;color:#000000;" d="m45.609-32.435a4.5609,4.5609,0,1,1,-9.1217,0,4.5609,4.5609,0,1,1,9.1217,0z" transform="matrix(0.32888467,0,0,0.32888467,358.97445,63.633668)" stroke-dashoffset="0" stroke-linecap="butt" stroke-miterlimit="4" stroke-dasharray="none" fill="none"/>
  <path id="path4625" opacity="0.23893804" stroke-linejoin="miter" style="enable-background:accumulate;color:#000000;" d="m45.609-32.435a4.5609,4.5609,0,1,1,-9.1217,0,4.5609,4.5609,0,1,1,9.1217,0z" transform="matrix(0.32888467,0,0,0.32888467,361.76395,52.708124)" stroke-dashoffset="0" stroke-linecap="butt" stroke-miterlimit="4" stroke-dasharray="none" fill="none"/>
  <path id="path4627" opacity="0.23893804" stroke-linejoin="miter" style="enable-background:accumulate;color:#000000;" d="m45.609-32.435a4.5609,4.5609,0,1,1,-9.1217,0,4.5609,4.5609,0,1,1,9.1217,0z" transform="matrix(0.32888467,0,0,0.32888467,355.02266,58.054667)" stroke-dashoffset="0" stroke-linecap="butt" stroke-miterlimit="4" stroke-dasharray="none" fill="none"/>
  <path id="path4629" opacity="0.23893804" stroke-linejoin="miter" style="enable-background:accumulate;color:#000000;" d="m45.609-32.435a4.5609,4.5609,0,1,1,-9.1217,0,4.5609,4.5609,0,1,1,9.1217,0z" transform="matrix(0.32888467,0,0,0.32888467,346.65416,84.554922)" stroke-dashoffset="0" stroke-linecap="butt" stroke-miterlimit="4" stroke-dasharray="none" fill="none"/>
  <path id="path4631" opacity="0.23893804" stroke-linejoin="miter" style="enable-background:accumulate;color:#000000;" d="m45.609-32.435a4.5609,4.5609,0,1,1,-9.1217,0,4.5609,4.5609,0,1,1,9.1217,0z" transform="matrix(0.32888467,0,0,0.32888467,359.43937,57.589751)" stroke-dashoffset="0" stroke-linecap="butt" stroke-miterlimit="4" stroke-dasharray="none" fill="none"/>
  <path id="path4633" opacity="0.23893804" stroke-linejoin="miter" style="enable-background:accumulate;color:#000000;" d="m45.609-32.435a4.5609,4.5609,0,1,1,-9.1217,0,4.5609,4.5609,0,1,1,9.1217,0z" transform="matrix(0.32888467,0,0,0.32888467,349.67612,62.703835)" stroke-dashoffset="0" stroke-linecap="butt" stroke-miterlimit="4" stroke-dasharray="none" fill="none"/>
  <path id="path4635" opacity="0.23893804" stroke-linejoin="miter" style="enable-background:accumulate;color:#000000;" d="m45.609-32.435a4.5609,4.5609,0,1,1,-9.1217,0,4.5609,4.5609,0,1,1,9.1217,0z" transform="matrix(0.32888467,0,0,0.32888467,347.34559,95.239894)" stroke-dashoffset="0" stroke-linecap="butt" stroke-miterlimit="4" stroke-dasharray="none" fill="none"/>
  <path id="path4637" opacity="0.23893804" stroke-linejoin="miter" style="enable-background:accumulate;color:#000000;" d="m45.609-32.435a4.5609,4.5609,0,1,1,-9.1217,0,4.5609,4.5609,0,1,1,9.1217,0z" transform="matrix(0.32888467,0,0,0.32888467,358.83723,80.385608)" stroke-dashoffset="0" stroke-linecap="butt" stroke-miterlimit="4" stroke-dasharray="none" fill="none"/>
  <path id="path4639" opacity="0.23893804" stroke-linejoin="miter" style="enable-background:accumulate;color:#000000;" d="m45.609-32.435a4.5609,4.5609,0,1,1,-9.1217,0,4.5609,4.5609,0,1,1,9.1217,0z" transform="matrix(0.32888467,0,0,0.32888467,355.55713,89.065588)" stroke-dashoffset="0" stroke-linecap="butt" stroke-miterlimit="4" stroke-dasharray="none" fill="none"/>
  <path id="path4641" opacity="0.23893804" style="enable-background:accumulate;color:#000000;" d="m45.609-32.435a4.5609,4.5609,0,1,1,-9.1217,0,4.5609,4.5609,0,1,1,9.1217,0z" transform="matrix(0.32888467,0,0,0.32888467,44.845014,58.515194)" fill="none"/>
  <path id="path4643" opacity="0.23893804" style="enable-background:accumulate;color:#000000;" d="m45.609-32.435a4.5609,4.5609,0,1,1,-9.1217,0,4.5609,4.5609,0,1,1,9.1217,0z" transform="matrix(0.32888467,0,0,0.32888467,50.658074,59.968454)" fill="none"/>
  <path id="path4645" opacity="0.23893804" style="enable-background:accumulate;color:#000000;" d="m45.609-32.435a4.5609,4.5609,0,1,1,-9.1217,0,4.5609,4.5609,0,1,1,9.1217,0z" transform="matrix(0.32888467,0,0,0.32888467,47.024914,62.874984)" fill="none"/>
  <path id="path4647" opacity="0.23893804" style="enable-background:accumulate;color:#000000;" d="m45.609-32.435a4.5609,4.5609,0,1,1,-9.1217,0,4.5609,4.5609,0,1,1,9.1217,0z" transform="matrix(0.32888467,0,0,0.32888467,59.867704,69.889454)" fill="none"/>
  <path id="path4649" opacity="0.23893804" style="enable-background:accumulate;color:#000000;" d="m45.609-32.435a4.5609,4.5609,0,1,1,-9.1217,0,4.5609,4.5609,0,1,1,9.1217,0z" transform="matrix(0.32888467,0,0,0.32888467,58.051124,61.169864)" fill="none"/>
  <path id="path4651" opacity="0.23893804" style="enable-background:accumulate;color:#000000;" d="m45.609-32.435a4.5609,4.5609,0,1,1,-9.1217,0,4.5609,4.5609,0,1,1,9.1217,0z" transform="matrix(0.32888467,0,0,0.32888467,93.656114,80.425624)" fill="none"/>
  <path id="path4653" opacity="0.23893804" style="enable-background:accumulate;color:#000000;" d="m45.609-32.435a4.5609,4.5609,0,1,1,-9.1217,0,4.5609,4.5609,0,1,1,9.1217,0z" transform="matrix(0.32888467,0,0,0.32888467,43.391754,66.508144)" fill="none"/>
  <path id="path4655" opacity="0.23893804" style="enable-background:accumulate;color:#000000;" d="m45.609-32.435a4.5609,4.5609,0,1,1,-9.1217,0,4.5609,4.5609,0,1,1,9.1217,0z" transform="matrix(0.32888467,0,0,0.32888467,75.726894,79.950844)" fill="none"/>
  <path id="path4657" opacity="0.76388891" style="enable-background:accumulate;color:#000000;" d="m45.609-32.435a4.5609,4.5609,0,1,1,-9.1217,0,4.5609,4.5609,0,1,1,9.1217,0z" fill-rule="nonzero" transform="matrix(0.32888467,0,0,0.32888467,138.34399,77.882404)" fill="#00F"/>
  <path id="path4659" opacity="0.23893804" style="enable-background:accumulate;color:#000000;" d="m45.609-32.435a4.5609,4.5609,0,1,1,-9.1217,0,4.5609,4.5609,0,1,1,9.1217,0z" transform="matrix(0.32888467,0,0,0.32888467,50.784804,66.982924)" fill="none"/>
  <path id="path4661" opacity="0.23893804" style="enable-background:accumulate;color:#000000;" d="m45.609-32.435a4.5609,4.5609,0,1,1,-9.1217,0,4.5609,4.5609,0,1,1,9.1217,0z" transform="matrix(0.32888467,0,0,0.32888467,46.061684,69.889454)" fill="none"/>
  <path id="path4663" opacity="0.23893804" style="enable-background:accumulate;color:#000000;" d="m45.609-32.435a4.5609,4.5609,0,1,1,-9.1217,0,4.5609,4.5609,0,1,1,9.1217,0z" transform="matrix(0.32888467,0,0,0.32888467,63.374144,65.054884)" fill="none"/>
  <path id="path4665" opacity="0.23893804" style="enable-background:accumulate;color:#000000;" d="m45.609-32.435a4.5609,4.5609,0,1,1,-9.1217,0,4.5609,4.5609,0,1,1,9.1217,0z" transform="matrix(0.32888467,0,0,0.32888467,69.187204,66.508144)" fill="none"/>
  <path id="path4667" opacity="0.23893804" style="enable-background:accumulate;color:#000000;" d="m45.609-32.435a4.5609,4.5609,0,1,1,-9.1217,0,4.5609,4.5609,0,1,1,9.1217,0z" transform="matrix(0.32888467,0,0,0.32888467,83.110054,91.296214)" fill="none"/>
  <path id="path4669" opacity="0.23893804" style="enable-background:accumulate;color:#000000;" d="m45.609-32.435a4.5609,4.5609,0,1,1,-9.1217,0,4.5609,4.5609,0,1,1,9.1217,0z" transform="matrix(0.32888467,0,0,0.32888467,75.490304,73.522614)" fill="none"/>
  <path id="path4671" opacity="0.23893804" style="enable-background:accumulate;color:#000000;" d="m45.609-32.435a4.5609,4.5609,0,1,1,-9.1217,0,4.5609,4.5609,0,1,1,9.1217,0z" transform="matrix(0.32888467,0,0,0.32888467,76.580244,67.709554)" fill="none"/>
  <path id="path4673" opacity="0.23893804" style="enable-background:accumulate;color:#000000;" d="m45.609-32.435a4.5609,4.5609,0,1,1,-9.1217,0,4.5609,4.5609,0,1,1,9.1217,0z" transform="matrix(0.32888467,0,0,0.32888467,71.857134,69.889454)" fill="none"/>
  <path id="path4675" opacity="0.23893804" style="enable-background:accumulate;color:#000000;" d="m45.609-32.435a4.5609,4.5609,0,1,1,-9.1217,0,4.5609,4.5609,0,1,1,9.1217,0z" transform="matrix(0.32888467,0,0,0.32888467,61.920874,73.047834)" fill="none"/>
  <path id="path4677" opacity="0.23893804" style="enable-background:accumulate;color:#000000;" d="m45.609-32.435a4.5609,4.5609,0,1,1,-9.1217,0,4.5609,4.5609,0,1,1,9.1217,0z" transform="matrix(0.32888467,0,0,0.32888467,52.474654,75.227734)" fill="none"/>
  <path id="path4679" opacity="0.23893804" style="enable-background:accumulate;color:#000000;" d="m45.609-32.435a4.5609,4.5609,0,1,1,-9.1217,0,4.5609,4.5609,0,1,1,9.1217,0z" transform="matrix(0.32888467,0,0,0.32888467,88.569684,79.335674)" fill="none"/>
  <path id="path4681" opacity="0.23893804" style="enable-background:accumulate;color:#000000;" d="m45.609-32.435a4.5609,4.5609,0,1,1,-9.1217,0,4.5609,4.5609,0,1,1,9.1217,0z" transform="matrix(0.32888467,0,0,0.32888467,69.313924,74.249244)" fill="none"/>
  <path id="path4683" opacity="0.23893804" style="enable-background:accumulate;color:#000000;" d="m45.609-32.435a4.5609,4.5609,0,1,1,-9.1217,0,4.5609,4.5609,0,1,1,9.1217,0z" transform="matrix(0.32888467,0,0,0.32888467,64.590814,76.429144)" fill="none"/>
  <path id="path4685" opacity="0.23893804" style="enable-background:accumulate;color:#000000;" d="m45.609-32.435a4.5609,4.5609,0,1,1,-9.1217,0,4.5609,4.5609,0,1,1,9.1217,0z" transform="matrix(0.32888467,0,0,0.32888467,84.809794,71.957894)" fill="none"/>
  <path id="path4687" opacity="0.23893804" style="enable-background:accumulate;color:#000000;" d="m45.609-32.435a4.5609,4.5609,0,1,1,-9.1217,0,4.5609,4.5609,0,1,1,9.1217,0z" transform="matrix(0.32888467,0,0,0.32888467,90.622854,73.411154)" fill="none"/>
  <path id="path4689" opacity="0.23893804" style="enable-background:accumulate;color:#000000;" d="m45.609-32.435a4.5609,4.5609,0,1,1,-9.1217,0,4.5609,4.5609,0,1,1,9.1217,0z" transform="matrix(0.32888467,0,0,0.32888467,80.450004,74.864424)" fill="none"/>
  <path id="path4691" opacity="0.76388891" style="enable-background:accumulate;color:#000000;" d="m45.609-32.435a4.5609,4.5609,0,1,1,-9.1217,0,4.5609,4.5609,0,1,1,9.1217,0z" fill-rule="nonzero" transform="matrix(0.32888467,0,0,0.32888467,125.99124,81.152254)" fill="#00F"/>
  <path id="path4693" opacity="0.23893804" style="enable-background:accumulate;color:#000000;" d="m45.609-32.435a4.5609,4.5609,0,1,1,-9.1217,0,4.5609,4.5609,0,1,1,9.1217,0z" transform="matrix(0.32888467,0,0,0.32888467,117.63497,92.778374)" fill="none"/>
  <path id="path4695" opacity="0.23893804" style="enable-background:accumulate;color:#000000;" d="m45.609-32.435a4.5609,4.5609,0,1,1,-9.1217,0,4.5609,4.5609,0,1,1,9.1217,0z" transform="matrix(0.32888467,0,0,0.32888467,99.105854,81.515574)" fill="none"/>
  <path id="path4697" opacity="0.23893804" style="enable-background:accumulate;color:#000000;" d="m45.609-32.435a4.5609,4.5609,0,1,1,-9.1217,0,4.5609,4.5609,0,1,1,9.1217,0z" transform="matrix(0.32888467,0,0,0.32888467,83.356534,79.950844)" fill="none"/>
  <path id="path4699" opacity="0.23893804" style="enable-background:accumulate;color:#000000;" d="m45.609-32.435a4.5609,4.5609,0,1,1,-9.1217,0,4.5609,4.5609,0,1,1,9.1217,0z" transform="matrix(0.32888467,0,0,0.32888467,79.723374,82.857374)" fill="none"/>
  <path id="path4701" opacity="0.23893804" style="enable-background:accumulate;color:#000000;" d="m45.609-32.435a4.5609,4.5609,0,1,1,-9.1217,0,4.5609,4.5609,0,1,1,9.1217,0z" transform="matrix(0.32888467,0,0,0.32888467,91.755304,91.156664)" fill="none"/>
  <path id="path4703" opacity="0.23893804" style="enable-background:accumulate;color:#000000;" d="m45.609-32.435a4.5609,4.5609,0,1,1,-9.1217,0,4.5609,4.5609,0,1,1,9.1217,0z" transform="matrix(0.32888467,0,0,0.32888467,30.261974,55.734574)" fill="none"/>
  <path id="path4705" opacity="0.23893804" style="enable-background:accumulate;color:#000000;" d="m45.609-32.435a4.5609,4.5609,0,1,1,-9.1217,0,4.5609,4.5609,0,1,1,9.1217,0z" transform="matrix(0.32888467,0,0,0.32888467,93.656114,84.785414)" fill="none"/>
  <path id="path4707" opacity="0.23893804" style="enable-background:accumulate;color:#000000;" d="m45.609-32.435a4.5609,4.5609,0,1,1,-9.1217,0,4.5609,4.5609,0,1,1,9.1217,0z" transform="matrix(0.32888467,0,0,0.32888467,86.626384,84.673954)" fill="none"/>
  <path id="path4709" opacity="0.23893804" style="enable-background:accumulate;color:#000000;" d="m45.609-32.435a4.5609,4.5609,0,1,1,-9.1217,0,4.5609,4.5609,0,1,1,9.1217,0z" transform="matrix(0.32888467,0,0,0.32888467,111.69519,91.940284)" fill="none"/>
  <path id="path4711" opacity="0.76388891" style="enable-background:accumulate;color:#000000;" d="m45.609-32.435a4.5609,4.5609,0,1,1,-9.1217,0,4.5609,4.5609,0,1,1,9.1217,0z" fill-rule="nonzero" transform="matrix(0.32888467,0,0,0.32888467,133.05281,84.883079)" fill="#00F"/>
  <path id="path4713" opacity="0.23893804" style="enable-background:accumulate;color:#000000;" d="m45.609-32.435a4.5609,4.5609,0,1,1,-9.1217,0,4.5609,4.5609,0,1,1,9.1217,0z" transform="matrix(0.32888467,0,0,0.32888467,115.45507,86.965314)" fill="none"/>
  <path id="path4715" opacity="0.23893804" style="enable-background:accumulate;color:#000000;" d="m45.609-32.435a4.5609,4.5609,0,1,1,-9.1217,0,4.5609,4.5609,0,1,1,9.1217,0z" transform="matrix(0.32888467,0,0,0.32888467,106.63103,85.616494)" fill="none"/>
  <path id="path4717" opacity="0.76388891" style="enable-background:accumulate;color:#000000;" d="m45.609-32.435a4.5609,4.5609,0,1,1,-9.1217,0,4.5609,4.5609,0,1,1,9.1217,0z" fill-rule="nonzero" transform="matrix(0.32888467,0,0,0.32888467,153.62019,78.992594)" fill="#00F"/>
  <path id="path4719" opacity="0.23893804" style="enable-background:accumulate;color:#000000;" d="m45.609-32.435a4.5609,4.5609,0,1,1,-9.1217,0,4.5609,4.5609,0,1,1,9.1217,0z" transform="matrix(0.32888467,0,0,0.32888467,101.88565,86.490534)" fill="none"/>
  <path id="path4721" opacity="0.23893804" style="enable-background:accumulate;color:#000000;" d="m45.609-32.435a4.5609,4.5609,0,1,1,-9.1217,0,4.5609,4.5609,0,1,1,9.1217,0z" transform="matrix(0.32888467,0,0,0.32888467,98.252494,89.397064)" fill="none"/>
  <path id="path4723" opacity="0.76388891" style="enable-background:accumulate;color:#000000;" d="m45.609-32.435a4.5609,4.5609,0,1,1,-9.1217,0,4.5609,4.5609,0,1,1,9.1217,0z" fill-rule="nonzero" transform="matrix(0.32888467,0,0,0.32888467,143.43042,67.709554)" fill="#00F"/>
  <path id="path4725" opacity="0.76388891" style="enable-background:accumulate;color:#000000;" d="m45.609-32.435a4.5609,4.5609,0,1,1,-9.1217,0,4.5609,4.5609,0,1,1,9.1217,0z" fill-rule="nonzero" transform="matrix(0.32888467,0,0,0.32888467,123.45865,87.318016)" fill="#00F"/>
  <path id="path4727" opacity="0.23893804" style="enable-background:accumulate;color:#000000;" d="m45.609-32.435a4.5609,4.5609,0,1,1,-9.1217,0,4.5609,4.5609,0,1,1,9.1217,0z" transform="matrix(0.32888467,0,0,0.32888467,104.55559,89.871844)" fill="none"/>
  <path id="path4729" opacity="0.23893804" stroke-linejoin="miter" style="enable-background:accumulate;color:#000000;" d="m45.609-32.435a4.5609,4.5609,0,1,1,-9.1217,0,4.5609,4.5609,0,1,1,9.1217,0z" transform="matrix(0.32888467,0,0,0.32888467,120.5415,83.695464)" stroke-dashoffset="0" stroke-linecap="butt" stroke-miterlimit="4" stroke-dasharray="none" fill="none"/>
  <path id="path4731" opacity="0.23893804" style="enable-background:accumulate;color:#000000;" d="m45.609-32.435a4.5609,4.5609,0,1,1,-9.1217,0,4.5609,4.5609,0,1,1,9.1217,0z" transform="matrix(0.32888467,0,0,0.32888467,107.56618,92.135144)" fill="none"/>
  <path id="path4733" opacity="0.76388891" style="enable-background:accumulate;color:#000000;" d="m45.609-32.435a4.5609,4.5609,0,1,1,-9.1217,0,4.5609,4.5609,0,1,1,9.1217,0z" fill-rule="nonzero" transform="matrix(0.32888467,0,0,0.32888467,154.20318,69.414674)" fill="#00F"/>
  <path id="path4735" opacity="0.76388891" style="enable-background:accumulate;color:#000000;" d="m45.609-32.435a4.5609,4.5609,0,1,1,-9.1217,0,4.5609,4.5609,0,1,1,9.1217,0z" fill-rule="nonzero" transform="matrix(0.32888467,0,0,0.32888467,142.34047,85.512044)" fill="#00F"/>
  <path id="path4737" opacity="0.76388891" style="enable-background:accumulate;color:#000000;" d="m45.609-32.435a4.5609,4.5609,0,1,1,-9.1217,0,4.5609,4.5609,0,1,1,9.1217,0z" fill-rule="nonzero" transform="matrix(0.32888467,0,0,0.32888467,127.87337,89.629014)" fill="#00F"/>
  <path id="path4739" opacity="0.76388891" style="enable-background:accumulate;color:#000000;" d="m45.609-32.435a4.5609,4.5609,0,1,1,-9.1217,0,4.5609,4.5609,0,1,1,9.1217,0z" fill-rule="nonzero" transform="matrix(0.32888467,0,0,0.32888467,133.49416,92.303594)" fill="#00F"/>
  <path id="path4741" opacity="0.76388891" style="enable-background:accumulate;color:#000000;" d="m45.609-32.435a4.5609,4.5609,0,1,1,-9.1217,0,4.5609,4.5609,0,1,1,9.1217,0z" fill-rule="nonzero" transform="matrix(0.32888467,0,0,0.32888467,129.67436,81.208404)" fill="#00F"/>
  <path id="path4743" opacity="0.76388891" style="enable-background:accumulate;color:#000000;" d="m45.609-32.435a4.5609,4.5609,0,1,1,-9.1217,0,4.5609,4.5609,0,1,1,9.1217,0z" fill-rule="nonzero" transform="matrix(0.32888467,0,0,0.32888467,147.4269,75.339194)" fill="#00F"/>
  <path id="path4745" opacity="0.76388891" style="enable-background:accumulate;color:#000000;" d="m45.609-32.435a4.5609,4.5609,0,1,1,-9.1217,0,4.5609,4.5609,0,1,1,9.1217,0z" fill-rule="nonzero" transform="matrix(0.32888467,0,0,0.32888467,142.47844,73.80102)" fill="#00F"/>
  <path id="path4747" opacity="0.76388891" style="enable-background:accumulate;color:#000000;" d="m45.609-32.435a4.5609,4.5609,0,1,1,-9.1217,0,4.5609,4.5609,0,1,1,9.1217,0z" fill-rule="nonzero" transform="matrix(0.32888467,0,0,0.32888467,163.77866,72.395147)" fill="#00F"/>
  <path id="path4749" opacity="0.23893804" style="enable-background:accumulate;color:#000000;" d="m45.609-32.435a4.5609,4.5609,0,1,1,-9.1217,0,4.5609,4.5609,0,1,1,9.1217,0z" transform="matrix(0.32888467,0,0,0.32888467,108.9567,88.501984)" fill="none"/>
  <path id="path4751" opacity="0.23893804" style="enable-background:accumulate;color:#000000;" d="m45.609-32.435a4.5609,4.5609,0,1,1,-9.1217,0,4.5609,4.5609,0,1,1,9.1217,0z" transform="matrix(0.32888467,0,0,0.32888467,111.6642,86.616034)" fill="none"/>
  <path id="path4753" opacity="0.23893804" style="enable-background:accumulate;color:#000000;" d="m45.609-32.435a4.5609,4.5609,0,1,1,-9.1217,0,4.5609,4.5609,0,1,1,9.1217,0z" transform="matrix(0.32888467,0,0,0.32888467,114.61284,97.708734)" fill="none"/>
  <path id="path4755" opacity="0.23893804" style="enable-background:accumulate;color:#000000;" d="m45.609-32.435a4.5609,4.5609,0,1,1,-9.1217,0,4.5609,4.5609,0,1,1,9.1217,0z" transform="matrix(0.32888467,0,0,0.32888467,107.58311,97.597274)" fill="none"/>
  <path id="path4757" opacity="0.23893804" style="enable-background:accumulate;color:#000000;" d="m45.609-32.435a4.5609,4.5609,0,1,1,-9.1217,0,4.5609,4.5609,0,1,1,9.1217,0z" transform="matrix(0.32888467,0,0,0.32888467,113.62076,94.985524)" fill="none"/>
  <path id="path4759" opacity="0.23893804" style="enable-background:accumulate;color:#000000;" d="m45.609-32.435a4.5609,4.5609,0,1,1,-9.1217,0,4.5609,4.5609,0,1,1,9.1217,0z" transform="matrix(0.32888467,0,0,0.32888467,111.31492,95.348004)" fill="none"/>
  <path id="path4761" opacity="0.23893804" style="enable-background:accumulate;color:#000000;" d="m45.609-32.435a4.5609,4.5609,0,1,1,-9.1217,0,4.5609,4.5609,0,1,1,9.1217,0z" transform="matrix(0.32888467,0,0,0.32888467,104.19023,94.636244)" fill="none"/>
  <path id="path4763" opacity="0.23893804" style="enable-background:accumulate;color:#000000;" d="m45.609-32.435a4.5609,4.5609,0,1,1,-9.1217,0,4.5609,4.5609,0,1,1,9.1217,0z" transform="matrix(0.32888467,0,0,0.32888467,116.06572,90.794184)" fill="none"/>
  <path id="path4765" opacity="0.23893804" style="enable-background:accumulate;color:#000000;" d="m45.609-32.435a4.5609,4.5609,0,1,1,-9.1217,0,4.5609,4.5609,0,1,1,9.1217,0z" transform="matrix(0.32888467,0,0,0.32888467,25.505634,57.282)" fill="none"/>
  <path id="path4767" opacity="0.23893804" style="enable-background:accumulate;color:#000000;" d="m45.609-32.435a4.5609,4.5609,0,1,1,-9.1217,0,4.5609,4.5609,0,1,1,9.1217,0z" transform="matrix(0.32888467,0,0,0.32888467,11.936214,56.80722)" fill="none"/>
  <path id="path4769" opacity="0.23893804" style="enable-background:accumulate;color:#000000;" d="m45.609-32.435a4.5609,4.5609,0,1,1,-9.1217,0,4.5609,4.5609,0,1,1,9.1217,0z" transform="matrix(0.32888467,0,0,0.32888467,8.3030536,59.71375)" fill="none"/>
  <path id="path4771" opacity="0.23893804" style="enable-background:accumulate;color:#000000;" d="m45.609-32.435a4.5609,4.5609,0,1,1,-9.1217,0,4.5609,4.5609,0,1,1,9.1217,0z" transform="matrix(0.32888467,0,0,0.32888467,32.045334,59.09858)" fill="none"/>
  <path id="path4773" opacity="0.23893804" style="enable-background:accumulate;color:#000000;" d="m45.609-32.435a4.5609,4.5609,0,1,1,-9.1217,0,4.5609,4.5609,0,1,1,9.1217,0z" transform="matrix(0.32888467,0,0,0.32888467,14.606154,60.18853)" fill="none"/>
  <path id="path4775" opacity="0.23893804" style="enable-background:accumulate;color:#000000;" d="m45.609-32.435a4.5609,4.5609,0,1,1,-9.1217,0,4.5609,4.5609,0,1,1,9.1217,0z" transform="matrix(0.32888467,0,0,0.32888467,36.041804,57.64532)" fill="none"/>
  <path id="path4777" opacity="0.23893804" style="enable-background:accumulate;color:#000000;" d="m45.609-32.435a4.5609,4.5609,0,1,1,-9.1217,0,4.5609,4.5609,0,1,1,9.1217,0z" transform="matrix(0.32888467,0,0,0.32888467,19.007264,58.81867)" fill="none"/>
  <path id="path4779" opacity="0.23893804" style="enable-background:accumulate;color:#000000;" d="m45.609-32.435a4.5609,4.5609,0,1,1,-9.1217,0,4.5609,4.5609,0,1,1,9.1217,0z" transform="matrix(0.32888467,0,0,0.32888467,21.714764,56.93272)" fill="none"/>
  <path id="path4781" opacity="0.23893804" style="enable-background:accumulate;color:#000000;" d="m45.609-32.435a4.5609,4.5609,0,1,1,-9.1217,0,4.5609,4.5609,0,1,1,9.1217,0z" transform="matrix(0.32888467,0,0,0.32888467,26.116284,61.11087)" fill="none"/>
  <path id="path4783" opacity="0.76388891" style="enable-background:accumulate;color:#000000;" d="m45.609-32.435a4.5609,4.5609,0,1,1,-9.1217,0,4.5609,4.5609,0,1,1,9.1217,0z" fill-rule="nonzero" transform="matrix(0.32888467,0,0,0.32888467,168.65473,57.58975)" fill="#00F"/>
  <path id="path4785" opacity="0.76388891" style="enable-background:accumulate;color:#000000;" d="m45.609-32.435a4.5609,4.5609,0,1,1,-9.1217,0,4.5609,4.5609,0,1,1,9.1217,0z" fill-rule="nonzero" transform="matrix(0.32888467,0,0,0.32888467,162.61081,63.633668)" fill="#00F"/>
  <path id="path4787" opacity="0.76388891" style="enable-background:accumulate;color:#000000;" d="m45.609-32.435a4.5609,4.5609,0,1,1,-9.1217,0,4.5609,4.5609,0,1,1,9.1217,0z" fill-rule="nonzero" transform="matrix(0.32888467,0,0,0.32888467,165.40031,52.708124)" fill="#00F"/>
  <path id="path4789" opacity="0.76388891" style="enable-background:accumulate;color:#000000;" d="m45.609-32.435a4.5609,4.5609,0,1,1,-9.1217,0,4.5609,4.5609,0,1,1,9.1217,0z" fill-rule="nonzero" transform="matrix(0.32888467,0,0,0.32888467,158.65902,58.054667)" fill="#00F"/>
  <path id="path4791" opacity="0.76388891" style="enable-background:accumulate;color:#000000;" d="m45.609-32.435a4.5609,4.5609,0,1,1,-9.1217,0,4.5609,4.5609,0,1,1,9.1217,0z" fill-rule="nonzero" transform="matrix(0.32888467,0,0,0.32888467,150.29052,84.554922)" fill="#00F"/>
  <path id="path4793" opacity="0.76388891" style="enable-background:accumulate;color:#000000;" d="m45.609-32.435a4.5609,4.5609,0,1,1,-9.1217,0,4.5609,4.5609,0,1,1,9.1217,0z" fill-rule="nonzero" transform="matrix(0.32888467,0,0,0.32888467,163.07573,57.589751)" fill="#00F"/>
  <path id="path4795" opacity="0.76388891" style="enable-background:accumulate;color:#000000;" d="m45.609-32.435a4.5609,4.5609,0,1,1,-9.1217,0,4.5609,4.5609,0,1,1,9.1217,0z" fill-rule="nonzero" transform="matrix(0.32888467,0,0,0.32888467,153.31248,62.703835)" fill="#00F"/>
  <path id="path4797" opacity="0.76388891" style="enable-background:accumulate;color:#000000;" d="m45.609-32.435a4.5609,4.5609,0,1,1,-9.1217,0,4.5609,4.5609,0,1,1,9.1217,0z" fill-rule="nonzero" transform="matrix(0.32888467,0,0,0.32888467,150.98195,95.239894)" fill="#00F"/>
  <path id="path4799" opacity="0.76388891" style="enable-background:accumulate;color:#000000;" d="m45.609-32.435a4.5609,4.5609,0,1,1,-9.1217,0,4.5609,4.5609,0,1,1,9.1217,0z" fill-rule="nonzero" transform="matrix(0.32888467,0,0,0.32888467,162.47359,80.385608)" fill="#00F"/>
  <path id="path4801" opacity="0.76388891" style="enable-background:accumulate;color:#000000;" d="m45.609-32.435a4.5609,4.5609,0,1,1,-9.1217,0,4.5609,4.5609,0,1,1,9.1217,0z" fill-rule="nonzero" transform="matrix(0.32888467,0,0,0.32888467,159.19349,89.065588)" fill="#00F"/>
 </g>
 <g id="layer3">
  <g id="g7521">
   <path id="path4804" stroke-linejoin="miter" style="enable-background:accumulate;color:#000000;" d="m136.02,11.871,0,90.483" stroke-dashoffset="0" stroke="#000" stroke-linecap="butt" stroke-miterlimit="4" stroke-dasharray="1, 2" stroke-width="1" fill="none"/>
   <path id="path4808" stroke-linejoin="miter" style="enable-background:accumulate;marker-end:url(#Arrow1Mend);color:#000000;" d="m13.659,101.62,0-84.63" stroke-dashoffset="0" stroke="#000" stroke-linecap="butt" stroke-miterlimit="4" stroke-dasharray="none" stroke-width="1" fill="none"/>
   <path id="path7492" stroke-linejoin="miter" style="enable-background:accumulate;marker-end:url(#Arrow1Mend);color:#000000;" d="m12.328,100.2,175.94,0" stroke-dashoffset="0" stroke="#000" stroke-linecap="butt" stroke-miterlimit="4" stroke-dasharray="none" stroke-width="1" fill="none"/>
   <text id="text7517" style="letter-spacing:0px;word-spacing:0px;" font-weight="normal" transform="matrix(0,-1,1,0,0,0)" line-height="125%" xml:space="preserve" font-size="10px" font-style="normal" y="132.09518" x="-49.187313" font-family="Sans" fill="#000000"><tspan id="tspan7519" y="132.09518" x="-49.187313">cut point</tspan></text>
  </g>
  <g id="g7528" transform="translate(198.92113,0)">
   <path id="path7530" stroke-linejoin="miter" style="enable-background:accumulate;color:#000000;" d="m136.02,11.871,0,90.483" stroke-dashoffset="0" stroke="#000" stroke-linecap="butt" stroke-miterlimit="4" stroke-dasharray="1, 2" stroke-width="1" fill="none"/>
   <path id="path7532" stroke-linejoin="miter" style="enable-background:accumulate;marker-end:url(#Arrow1Mend);color:#000000;" d="m13.659,101.62,0-84.63" stroke-dashoffset="0" stroke="#000" stroke-linecap="butt" stroke-miterlimit="4" stroke-dasharray="none" stroke-width="1" fill="none"/>
   <path id="path7534" stroke-linejoin="miter" style="enable-background:accumulate;marker-end:url(#Arrow1Mend);color:#000000;" d="m12.328,100.2,175.94,0" stroke-dashoffset="0" stroke="#000" stroke-linecap="butt" stroke-miterlimit="4" stroke-dasharray="none" stroke-width="1" fill="none"/>
   <text id="text7536" style="letter-spacing:0px;word-spacing:0px;" font-weight="normal" xml:space="preserve" transform="matrix(0,-1,1,0,0,0)" font-size="10px" font-style="normal" y="132.09518" x="-49.187313" font-family="Sans" line-height="125%" fill="#000000"><tspan id="tspan7538" x="-49.187313" y="132.09518">cut point</tspan></text>
  </g>
  <g id="g7540" transform="translate(401.0301,0)">
   <path id="path7542" stroke-linejoin="miter" style="enable-background:accumulate;color:#000000;" d="m136.02,11.871,0,90.483" stroke-dashoffset="0" stroke="#000" stroke-linecap="butt" stroke-miterlimit="4" stroke-dasharray="1, 2" stroke-width="1" fill="none"/>
   <path id="path7544" stroke-linejoin="miter" style="enable-background:accumulate;marker-end:url(#Arrow1Mend);color:#000000;" d="m13.659,101.62,0-84.63" stroke-dashoffset="0" stroke="#000" stroke-linecap="butt" stroke-miterlimit="4" stroke-dasharray="none" stroke-width="1" fill="none"/>
   <path id="path7546" stroke-linejoin="miter" style="enable-background:accumulate;marker-end:url(#Arrow1Mend);color:#000000;" d="m12.328,100.2,175.94,0" stroke-dashoffset="0" stroke="#000" stroke-linecap="butt" stroke-miterlimit="4" stroke-dasharray="none" stroke-width="1" fill="none"/>
   <text id="text7548" style="letter-spacing:0px;word-spacing:0px;" font-weight="normal" transform="matrix(0,-1,1,0,0,0)" line-height="125%" xml:space="preserve" font-size="10px" font-style="normal" y="132.09518" x="-49.187313" font-family="Sans" fill="#000000"><tspan id="tspan7550" y="132.09518" x="-49.187313">cut point</tspan></text>
  </g>
 </g>
 <g id="layer2" stroke-linejoin="miter" stroke-linecap="butt" stroke-dasharray="1.6, 1.6" fill="none" stroke-miterlimit="4" stroke-width="0.80000001" stroke-dashoffset="0">
  <path id="path4034" style="enable-background:accumulate;color:#000000;" d="M588.38,42.927,537.26,88.985" stroke="#ca3b3b"/>
  <path id="path3066" style="enable-background:accumulate;color:#000000;" d="M536.56,88.812,415.8,39.991" stroke="#ca3b3b"/>
  <path id="path4042" opacity="0.5" style="enable-background:accumulate;color:#000000;" d="m386.27,88.84-51.122,0.14501" stroke="#0020ff"/>
  <path id="path4044" style="enable-background:accumulate;color:#000000;" d="M334.46,88.812,213.69,39.991" stroke="#ca3b3b"/>
  <path id="path4048" style="enable-background:accumulate;color:#000000;" d="M187.33,42.927,136.21,88.985" stroke="#ca3b3b"/>
  <path id="path4050" opacity="0.5" style="enable-background:accumulate;color:#000000;" d="M135.51,88.812,13.736,88.577" stroke="#0020ff"/>
 </g>
 <g id="layer4" opacity="0.465" stroke-linejoin="miter" stroke="#000" stroke-linecap="butt" stroke-dasharray="none" fill="none" stroke-miterlimit="4" stroke-width="0.50000000000000000" stroke-dashoffset="0">
  <path id="path7669" opacity="0.50000000000000000" style="enable-background:accumulate;marker-end:url(#Arrow2Send);color:#000000;" d="m378.85,41.304,0,46.873"/>
  <path id="path8635" opacity="0.50000000000000000" style="enable-background:accumulate;marker-end:url(#Arrow2Send);color:#000000;" d="m374.85,45.564,0,42.613"/>
  <path id="path8637" opacity="0.50000000000000000" style="enable-background:accumulate;marker-end:url(#Arrow2Send);color:#000000;" d="m370.85,49.648,0,38.528"/>
  <path id="path8639" opacity="0.50000000000000000" style="enable-background:accumulate;marker-end:url(#Arrow2Send);color:#000000;" d="m366.85,53.747,0,34.43"/>
  <path id="path8641" opacity="0.50000000000000000" style="enable-background:accumulate;marker-end:url(#Arrow2Send);color:#000000;" d="m362.85,57.86,0,30.316"/>
  <path id="path8643" opacity="0.50000000000000000" style="enable-background:accumulate;marker-end:url(#Arrow2Send);color:#000000;" d="m358.85,62.206,0,25.97"/>
  <path id="path8645" opacity="0.50000000000000000" style="enable-background:accumulate;marker-end:url(#Arrow2Send);color:#000000;" d="m354.85,66.289,0,21.888"/>
  <path id="path8647" opacity="0.50000000000000000" style="enable-background:accumulate;marker-end:url(#Arrow2Send);color:#000000;" d="m350.85,70.534,0,17.642"/>
  <path id="path8649" opacity="0.50000000000000000" style="enable-background:accumulate;marker-end:url(#Arrow2Send);color:#000000;" d="m346.85,74.776,0,13.401"/>
  <path id="path8651" opacity="0.50000000000000000" style="enable-background:accumulate;marker-end:url(#Arrow2Send);color:#000000;" d="m342.85,78.534,0,9.643"/>
  <path id="path8653" opacity="0.50000000000000000" style="enable-background:accumulate;marker-end:url(#Arrow2Send);color:#000000;" d="m338.85,82.845,0,5.3315"/>
  <path id="path8659" opacity="0.50000000000000000" style="enable-background:accumulate;marker-end:url(#Arrow2Send);color:#000000;" d="m129.72,86.038,0,2.1386"/>
  <path id="path8661" opacity="0.50000000000000000" style="enable-background:accumulate;marker-end:url(#Arrow2Send);color:#000000;" d="m125.72,84.327,0,3.8497"/>
  <path id="path8663" opacity="0.50000000000000000" style="enable-background:accumulate;marker-end:url(#Arrow2Send);color:#000000;" d="m121.72,82.942,0,5.2349"/>
  <path id="path8665" opacity="0.50000000000000000" style="enable-background:accumulate;marker-end:url(#Arrow2Send);color:#000000;" d="m117.72,81.312,0,6.8646"/>
  <path id="path8667" opacity="0.50000000000000000" style="enable-background:accumulate;marker-end:url(#Arrow2Send);color:#000000;" d="m113.72,79.682,0,8.4942"/>
  <path id="path8669" opacity="0.50000000000000000" style="enable-background:accumulate;marker-end:url(#Arrow2Send);color:#000000;" d="m109.72,77.971,0,10.205"/>
  <path id="path8671" opacity="0.50000000000000000" style="enable-background:accumulate;marker-end:url(#Arrow2Send);color:#000000;" d="m105.72,76.586,0,11.591"/>
  <path id="path8673" opacity="0.50000000000000000" style="enable-background:accumulate;marker-end:url(#Arrow2Send);color:#000000;" d="m101.72,75.119,0,13.057"/>
  <path id="path8675" opacity="0.50000000000000000" style="enable-background:accumulate;marker-end:url(#Arrow2Send);color:#000000;" d="m97.719,73.49,0,14.687"/>
  <path id="path8677" opacity="0.50000000000000000" style="enable-background:accumulate;marker-end:url(#Arrow2Send);color:#000000;" d="m93.719,71.86,0,16.317"/>
  <path id="path8679" opacity="0.50000000000000000" style="enable-background:accumulate;marker-end:url(#Arrow2Send);color:#000000;" d="m89.719,70.393,0,17.783"/>
  <path id="path8681" opacity="0.50000000000000000" style="enable-background:accumulate;marker-end:url(#Arrow2Send);color:#000000;" d="m85.719,68.845,0,19.331"/>
  <path id="path8683" opacity="0.50000000000000000" style="enable-background:accumulate;marker-end:url(#Arrow2Send);color:#000000;" d="m81.719,67.052,0,21.124"/>
  <path id="path8685" opacity="0.50000000000000000" style="enable-background:accumulate;marker-end:url(#Arrow2Send);color:#000000;" d="m77.719,65.749,0,22.428"/>
  <path id="path8687" opacity="0.50000000000000000" style="enable-background:accumulate;marker-end:url(#Arrow2Send);color:#000000;" d="m73.719,63.956,0,24.22"/>
  <path id="path8689" opacity="0.50000000000000000" style="enable-background:accumulate;marker-end:url(#Arrow2Send);color:#000000;" d="m69.719,62.652,0,25.524"/>
  <path id="path8691" opacity="0.50000000000000000" style="enable-background:accumulate;marker-end:url(#Arrow2Send);color:#000000;" d="m65.719,60.795,0,27.382"/>
  <path id="path8693" opacity="0.50000000000000000" style="enable-background:accumulate;marker-end:url(#Arrow2Send);color:#000000;" d="m61.719,59.248,0,28.928"/>
  <path id="path8695" opacity="0.50000000000000000" style="enable-background:accumulate;marker-end:url(#Arrow2Send);color:#000000;" d="m57.719,57.624,0,30.553"/>
  <path id="path8697" opacity="0.50000000000000000" style="enable-background:accumulate;marker-end:url(#Arrow2Send);color:#000000;" d="m53.719,56.154,0,32.022"/>
  <path id="path8699" opacity="0.50000000000000000" style="enable-background:accumulate;marker-end:url(#Arrow2Send);color:#000000;" d="m49.719,54.53,0,33.647"/>
  <path id="path8701" opacity="0.50000000000000000" style="enable-background:accumulate;marker-end:url(#Arrow2Send);color:#000000;" d="m45.719,52.828,0,35.348"/>
  <path id="path8703" opacity="0.50000000000000000" style="enable-background:accumulate;marker-end:url(#Arrow2Send);color:#000000;" d="m41.719,51.204,0,36.972"/>
  <path id="path8705" opacity="0.50000000000000000" style="enable-background:accumulate;marker-end:url(#Arrow2Send);color:#000000;" d="m37.719,49.657,0,38.519"/>
  <path id="path8707" opacity="0.50000000000000000" style="enable-background:accumulate;marker-end:url(#Arrow2Send);color:#000000;" d="m33.719,48.188,0,39.989"/>
  <path id="path8709" opacity="0.50000000000000000" style="enable-background:accumulate;marker-end:url(#Arrow2Send);color:#000000;" d="m29.719,46.641,0,41.536"/>
  <path id="path8711" opacity="0.50000000000000000" style="enable-background:accumulate;marker-end:url(#Arrow2Send);color:#000000;" d="m25.719,44.939,0,43.237"/>
  <path id="path8713" opacity="0.50000000000000000" style="enable-background:accumulate;marker-end:url(#Arrow2Send);color:#000000;" d="m21.719,43.47,0,44.707"/>
  <path id="path8715" opacity="0.50000000000000000" style="enable-background:accumulate;marker-end:url(#Arrow2Send);color:#000000;" d="m17.719,41.691,0,46.486"/>
  <path id="path8717" opacity="0.50000000000000000" style="enable-background:accumulate;marker-end:url(#Arrow2Send);color:#000000;" d="m13.719,41.304,0,46.873"/>
 </g>
 <g id="layer5" font-size="10px" font-family="Sans" font-style="normal" font-weight="normal" fill="#000000">
  <text id="text8722" style="writing-mode:lr-tb;letter-spacing:0px;text-anchor:start;word-spacing:0px;text-align:start;" xml:space="preserve" line-height="125%" y="116.84768" x="213.8808"><tspan id="tspan8746" x="213.8808" y="116.84768">&quot;left-hand feature&quot;</tspan></text>
  <text id="text8738" style="writing-mode:lr;letter-spacing:0px;text-anchor:start;word-spacing:0px;text-align:start;" line-height="125%" y="116.84768" x="13.880798" xml:space="preserve"><tspan id="tspan8744">&quot;right-hand feature&quot;</tspan></text>
  <text id="text8748" style="writing-mode:lr;letter-spacing:0px;text-anchor:start;word-spacing:0px;text-align:start;" line-height="125%" y="116.84768" x="413.8808" xml:space="preserve"><tspan id="tspan8754">linear regression with the two </tspan><tspan id="tspan8756">new features</tspan></text>
 </g>
</svg>
